<?xml version="1.0" encoding="utf-8"?>
<!-- Generator: Adobe Illustrator 19.1.0, SVG Export Plug-In . SVG Version: 6.00 Build 0)  -->
<svg version="1.1" xmlns="http://www.w3.org/2000/svg" xmlns:xlink="http://www.w3.org/1999/xlink" x="0px" y="0px"
	 viewBox="-187 117 236 560" style="enable-background:new -187 117 236 560;" xml:space="preserve">
<style type="text/css">
	.st0{fill:#653D3B;stroke:#000000;stroke-miterlimit:10;}
	.st1{fill:#653E3C;stroke:#000000;stroke-miterlimit:10;}
	.st2{fill:none;stroke:#000000;stroke-miterlimit:10;}
</style>
<g id="Layer_3">
	<path class="st0" d="M-186.5,117.5v559h235v-559H-186.5z M6.9,252.9h-158.8V151.2H6.9V252.9z"/>
</g>
<g id="Layer_1">
	<g id="Frame">
		<rect x="-149.9" y="293.4" class="st0" width="52.7" height="328.4"/>
		<rect x="-51.2" y="293.4" class="st0" width="58.1" height="328.4"/>
		<rect x="-135.8" y="265" class="st0" width="23.3" height="14.1"/>
		<rect x="-101.2" y="265" class="st0" width="23.3" height="14.1"/>
		<rect x="-66.5" y="265" class="st0" width="23.3" height="14.1"/>
		<rect x="-32.8" y="265" class="st0" width="23.3" height="14.1"/>
		<rect x="-149.9" y="293.4" class="st0" width="58.1" height="328.4"/>
		<rect x="-151.9" y="252.9" class="st1" width="158.8" height="12.1"/>
	</g>
</g>
<g id="Layer_2">
	<g id="Glass">
		<rect x="-140" y="161.7" class="st2" width="132.5" height="82.6"/>
		<path class="st2" d="M-140.3,187c13.1-5.5,36.4-13.3,66.2-13c30,0.3,53.2,8.6,66.2,14.3"/>
		<path class="st2" d="M-140.3,204c13.1-5.5,36.4-13.3,66.2-13c30,0.3,53.2,8.6,66.2,14.3"/>
		<line class="st2" x1="-124.3" y1="161.7" x2="-124.3" y2="244.4"/>
		<line class="st2" x1="-23.2" y1="161.7" x2="-23.2" y2="244.4"/>
		<line class="st2" x1="-73.7" y1="230" x2="-73.7" y2="244.4"/>
		<line class="st2" x1="-139.3" y1="230" x2="-7.5" y2="230"/>
		<line class="st2" x1="-38.6" y1="177.7" x2="-38.6" y2="230"/>
		<line class="st2" x1="-108.2" y1="177.2" x2="-108.2" y2="229.6"/>
		<line class="st0" x1="-73" y1="174" x2="-73" y2="161.7"/>
	</g>
</g>
</svg>
