<?xml version="1.0" encoding="utf-8"?>
<!-- Generator: Adobe Illustrator 19.0.1, SVG Export Plug-In . SVG Version: 6.00 Build 0)  -->
<svg version="1.1" xmlns="http://www.w3.org/2000/svg" xmlns:xlink="http://www.w3.org/1999/xlink" x="0px" y="0px"
	 viewBox="0 0 236 560" style="enable-background:new 0 0 236 560;" xml:space="preserve">
<style type="text/css">
	.st0{fill:#FFFFFF;stroke:#000000;stroke-miterlimit:10;}
	.st1{fill:none;stroke:#000000;stroke-miterlimit:10;}
</style>
<g id="Frame">
	<rect x="0.5" y="0.5" class="st0" width="235" height="559"/>
	<rect x="37.1" y="176.4" class="st0" width="52.7" height="328.4"/>
	<rect x="135.8" y="176.4" class="st0" width="58.1" height="328.4"/>
	<polygon class="st0" points="35.1,34.2 35.1,148 50.2,148 193.9,148 193.9,34.2 	"/>
	<rect x="51.2" y="148" class="st0" width="23.3" height="14.1"/>
	<rect x="85.8" y="148" class="st0" width="23.3" height="14.1"/>
	<rect x="120.5" y="148" class="st0" width="23.3" height="14.1"/>
	<rect x="154.2" y="148" class="st0" width="23.3" height="14.1"/>
	<line class="st1" x1="114" y1="60" x2="114" y2="47.7"/>
	<rect x="37.1" y="176.4" class="st0" width="58.1" height="328.4"/>
</g>
<g id="Glass">
	<rect x="47" y="47.7" class="st1" width="132.5" height="82.6"/>
	<rect x="35.1" y="135.9" class="st1" width="158.8" height="12.1"/>
	<path class="st1" d="M46.7,73c13.1-5.5,36.4-13.3,66.2-13c30,0.3,53.2,8.6,66.2,14.3"/>
	<path class="st1" d="M46.7,90c13.1-5.5,36.4-13.3,66.2-13c30,0.3,53.2,8.6,66.2,14.3"/>
	<line class="st1" x1="62.7" y1="47.7" x2="62.7" y2="130.4"/>
	<line class="st1" x1="163.8" y1="47.7" x2="163.8" y2="130.4"/>
	<line class="st1" x1="113.3" y1="116" x2="113.3" y2="130.4"/>
	<line class="st1" x1="47.7" y1="116" x2="179.5" y2="116"/>
	<line class="st1" x1="148.4" y1="63.7" x2="148.4" y2="116"/>
	<line class="st1" x1="78.8" y1="63.2" x2="78.8" y2="115.6"/>
</g>
</svg>
