<?xml version="1.0" encoding="UTF-8" standalone="no"?>
<!-- Created with Inkscape (http://www.inkscape.org/) -->

<svg xmlns:xlink="http://www.w3.org/1999/xlink"
   xmlns="http://www.w3.org/2000/svg"
   width="80"
   height="190"
   id="svg2"
   version="1.1"
   style="display:inline">
  <defs id="defs4">
     <%= glass_or_gradient %>
  </defs>
  <g
     id="layer1"
     transform="translate(0,-862.36218)">
    <rect
       style="fill:#ffffff;fill-opacity:1;fill-rule:evenodd;stroke:#000000;stroke-width:0.99999988;stroke-linecap:butt;stroke-linejoin:miter;stroke-miterlimit:4;stroke-opacity:1;stroke-dasharray:none"
       id="rect2987"
       width="79"
       height="189.00005"
       x="0.50000006"
       y="862.86218" />
  </g>
  <g
     id="layer3"
     style="display:inline">
    <rect
       style="fill:#ffffff;fill-opacity:1;stroke:#808080;stroke-width:1;stroke-linecap:square;stroke-linejoin:miter;stroke-miterlimit:4;stroke-opacity:1;stroke-dasharray:none"
       id="rect3816"
       width="9"
       height="14"
       x="14.5"
       y="155.5" />
    <rect
       style="fill:#ffffff;fill-opacity:1;stroke:#808080;stroke-width:1;stroke-linecap:square;stroke-linejoin:miter;stroke-miterlimit:4;stroke-opacity:1;stroke-dasharray:none"
       id="rect3816-3"
       width="5"
       height="10"
       x="16.5"
       y="157.5" />
    <rect
       style="fill:#ffffff;fill-opacity:1;stroke:#808080;stroke-width:1;stroke-linecap:square;stroke-linejoin:miter;stroke-miterlimit:4;stroke-opacity:1;stroke-dasharray:none"
       id="rect3816-33"
       width="9"
       height="14"
       x="56.5"
       y="155.5" />
    <rect
       style="fill:#ffffff;fill-opacity:1;stroke:#808080;stroke-width:1;stroke-linecap:square;stroke-linejoin:miter;stroke-miterlimit:4;stroke-opacity:1;stroke-dasharray:none"
       id="rect3816-3-7"
       width="5"
       height="10"
       x="58.5"
       y="157.5" />
    <rect
       style="fill:#ffffff;fill-opacity:1;stroke:#808080;stroke-width:1;stroke-linecap:square;stroke-linejoin:miter;stroke-miterlimit:4;stroke-opacity:1;stroke-dasharray:none"
       id="rect3816-2"
       width="9"
       height="94.000023"
       x="14.5"
       y="54.5" />
    <rect
       style="fill:#ffffff;fill-opacity:1;stroke:#808080;stroke-width:1;stroke-linecap:square;stroke-linejoin:miter;stroke-miterlimit:4;stroke-opacity:1;stroke-dasharray:none"
       id="rect3816-3-1"
       width="5"
       height="90.000008"
       x="16.5"
       y="56.500004" />
    <rect
       style="fill:#ffffff;fill-opacity:1;stroke:#808080;stroke-width:1;stroke-linecap:square;stroke-linejoin:miter;stroke-miterlimit:4;stroke-opacity:1;stroke-dasharray:none"
       id="rect3816-2-0"
       width="9"
       height="94.000023"
       x="56.5"
       y="54.5" />
    <rect
       style="fill:#ffffff;fill-opacity:1;stroke:#808080;stroke-width:1;stroke-linecap:square;stroke-linejoin:miter;stroke-miterlimit:4;stroke-opacity:1;stroke-dasharray:none"
       id="rect3816-3-1-9"
       width="5"
       height="90.000008"
       x="58.5"
       y="56.5" />
    <rect
       style="fill:#ffffff;fill-opacity:1;stroke:#808080;stroke-width:0.99999994;stroke-linecap:square;stroke-linejoin:miter;stroke-miterlimit:4;stroke-opacity:1;stroke-dasharray:none"
       id="rect3816-4"
       width="19"
       height="28"
       x="30.5"
       y="141.5" />
    <rect
       style="fill:#ffffff;fill-opacity:1;stroke:#808080;stroke-width:1;stroke-linecap:square;stroke-linejoin:miter;stroke-miterlimit:4;stroke-opacity:1;stroke-dasharray:none"
       id="rect3816-3-0"
       width="15"
       height="24"
       x="32.5"
       y="143.5" />
    <path
       style="fill:#ffffff;fill-opacity:1;stroke:#808080;stroke-width:0.99999988;stroke-linecap:square;stroke-linejoin:miter;stroke-miterlimit:4;stroke-opacity:1;stroke-dasharray:none"
       d="m 40,34.5 c -5.246705,0 -9.5,4.477153 -9.5,10 l 0,90 19,0 0,-90 c 0,-5.522847 -4.253295,-10 -9.5,-10 z"
       id="rect3816-4-9"/>
    <path
       style="fill:url(#glassbkg);fill-opacity:1;stroke:#808080;stroke-width:1;stroke-linecap:square;stroke-linejoin:miter;stroke-miterlimit:4;stroke-opacity:1;stroke-dasharray:none"
       d="m 40,36.5 c -4.142136,0 -7.5,3.581722 -7.5,8 l 0,88 15,0 0,-88 c 0,-4.418278 -3.357864,-8 -7.5,-8 z"
       id="rect3816-3-0-7"/>
    <path
       style="fill:#ffffff;fill-opacity:1;stroke:#808080;stroke-width:1;stroke-linecap:square;stroke-linejoin:miter;stroke-miterlimit:4;stroke-opacity:1;stroke-dasharray:none"
       d="m 14.5,15.5 0,32 9,0 c 0,-9.58331 5.576252,-17.578529 13,-19.53125 l 0,-12.46875 -22,0 z"
       id="rect3967"/>
    <path
       style="fill:#ffffff;fill-opacity:1;stroke:#808080;stroke-width:0.99999994;stroke-linecap:square;stroke-linejoin:miter;stroke-miterlimit:4;stroke-opacity:1;stroke-dasharray:none"
       d="m 16.5,17.5 0,28 5.09375,0 C 22.275671,36.51424 27.484268,29.094953 34.5,26.5 l 0,-9 -18,0 z"
       id="rect3967-3"/>
    <path
       style="fill:#ffffff;fill-opacity:1;stroke:#808080;stroke-width:1;stroke-linecap:square;stroke-linejoin:miter;stroke-miterlimit:4;stroke-opacity:1;stroke-dasharray:none"
       d="m 43.5,15.5 0,12.46875 c 7.423748,1.952721 13,9.94794 13,19.53125 l 9,0 0,-32 -22,0 z"
       id="rect3967-1"/>
    <path
       style="fill:#ffffff;fill-opacity:1;stroke:#808080;stroke-width:0.99999994;stroke-linecap:square;stroke-linejoin:miter;stroke-miterlimit:4;stroke-opacity:1;stroke-dasharray:none"
       d="m 45.5,17.5 0,9 c 7.015732,2.594953 12.224329,10.01424 12.90625,19 l 5.09375,0 0,-28 -18,0 z"
       id="rect3967-3-6"/>
  </g>
</svg>
