<?xml version="1.0" encoding="UTF-8" standalone="no"?>
<!-- Created with Inkscape (http://www.inkscape.org/) -->

<svg
   xmlns="http://www.w3.org/2000/svg"
   width="80"
   height="190"
   id="svg2"
   version="1.1"
   style="display:inline">
  <defs id="defs4">
    <%= glass_or_gradient %>
  </defs>
  <g id="layer1" transform="translate(0,-862.36218)">
    <rect
       style="fill:#ffffff;fill-opacity:1;fill-rule:evenodd;stroke:#000000;stroke-width:0.99999988;stroke-linecap:butt;stroke-linejoin:miter;stroke-miterlimit:4;stroke-opacity:1;stroke-dasharray:none"
       id="rect2987"
       width="79"
       height="189.00005"
       x="0.50000006"
       y="862.86218" />
  </g>
  <g id="layer3" style="display:inline">
    <path
       style="fill:none;stroke:#808080;stroke-width:1;stroke-linecap:square;stroke-linejoin:miter;stroke-miterlimit:4;stroke-opacity:1;stroke-dasharray:none"
       d="m 40,15.5 c -2.726906,0 -5.397395,0.14444 -7.96875,0.4375 C 31.85241,15.957883 31.677876,15.978282 31.5,16 l 0,15.5 17,0 0,-15.5 C 48.322124,15.978282 48.14759,15.957883 47.96875,15.9375 45.397395,15.64444 42.726906,15.5 40,15.5 z m -15.5,1.75 c -2.316848,0.551148 -4.529861,1.223408 -6.59375,2 -1.224341,0.46069 -2.28488,1.030271 -3.40625,1.5625 l 0,10.6875 10,0 0,-14.25 z m 31,0 0,14.25 10,0 0,-10.6875 C 64.37863,20.280271 63.318091,19.71069 62.09375,19.25 60.029861,18.473408 57.816848,17.801148 55.5,17.25 z m -41,22.25 0,14.6875 0,29.3125 10,0 0,-44 -10,0 z m 17,0 0,44 17,0 0,-44 -17,0 z m 24,0 0,44 10,0 0,-29.3125 0,-14.6875 -10,0 z m -41,52 0,77 10,0 0,-77 -10,0 z m 17,0 0,77 17,0 0,-77 -17,0 z m 24,0 0,77 10,0 0,-77 -10,0 z"
       id="path3888"/>
    <path
       style="fill:none;stroke:#808080;stroke-width:1;stroke-linecap:square;stroke-linejoin:miter;stroke-miterlimit:4;stroke-opacity:1;stroke-dasharray:none"
       d="m 40,17.5 c -2.216373,0 -4.388174,0.115831 -6.5,0.3125 l 0,11.6875 13,0 0,-11.6875 C 44.388174,17.615831 42.216373,17.5 40,17.5 z"
       id="path3827"/>
    <path
       style="fill:none;stroke:#808080;stroke-width:1;stroke-linecap:square;stroke-linejoin:miter;stroke-miterlimit:4;stroke-opacity:1;stroke-dasharray:none"
       d="m 22.5,19.8125 c -1.194023,0.336344 -2.356702,0.693065 -3.46875,1.09375 C 18.125444,21.232624 17.347105,21.633776 16.5,22 l 0,7.5 6,0 0,-9.6875 z"
       id="path3825"/>
    <path
       style="fill:none;stroke:#808080;stroke-width:1;stroke-linecap:square;stroke-linejoin:miter;stroke-miterlimit:4;stroke-opacity:1;stroke-dasharray:none"
       d="m 57.5,19.8125 0,9.6875 6,0 0,-7.5 C 62.652895,21.633776 61.874556,21.232624 60.96875,20.90625 59.856702,20.505565 58.694023,20.148844 57.5,19.8125 z"
       id="path3823"
        />
    <path
       style="fill:none;stroke:#808080;stroke-width:1;stroke-linecap:square;stroke-linejoin:miter;stroke-miterlimit:4;stroke-opacity:1;stroke-dasharray:none"
       d="m 16.5,41.5 0,11.5 0,28.5 6,0 0,-40 -6,0 z"
       id="path3821"/>
    <path
       style="fill:url(#glassbkg);fill-opacity:1;stroke:#808080;stroke-width:1;stroke-linecap:square;stroke-linejoin:miter;stroke-miterlimit:4;stroke-opacity:1;stroke-dasharray:none"
       d="m 33.5,41.5 0,40 13,0 0,-40 -13,0 z"
       id="path3819"/>
    <path
       style="fill:none;stroke:#808080;stroke-width:1;stroke-linecap:square;stroke-linejoin:miter;stroke-miterlimit:4;stroke-opacity:1;stroke-dasharray:none"
       d="m 57.5,41.5 0,40 6,0 0,-28.5 0,-11.5 -6,0 z"
       id="path3817"/>
    <path
       style="fill:none;stroke:#808080;stroke-width:1;stroke-linecap:square;stroke-linejoin:miter;stroke-miterlimit:4;stroke-opacity:1;stroke-dasharray:none"
       d="m 16.5,93.5 0,73 6,0 0,-73 -6,0 z"
       id="path3815"/>
    <path
       style="fill:none;stroke:#808080;stroke-width:1;stroke-linecap:square;stroke-linejoin:miter;stroke-miterlimit:4;stroke-opacity:1;stroke-dasharray:none"
       d="m 33.5,93.5 0,73 13,0 0,-73 -13,0 z"
       id="path3813"/>
    <path
       style="fill:none;stroke:#808080;stroke-width:1;stroke-linecap:square;stroke-linejoin:miter;stroke-miterlimit:4;stroke-opacity:1;stroke-dasharray:none"
       d="m 57.5,93.5 0,73 6,0 0,-73 -6,0 z"
       id="path3882"/>
  </g>
</svg>
