<?xml version="1.0" encoding="UTF-8" standalone="no"?>
<!DOCTYPE svg PUBLIC "-//W3C//DTD SVG 1.0//EN"
 "http://www.w3.org/TR/2001/REC-SVG-20010904/DTD/svg10.dtd" [
 <!ATTLIST svg xmlns:xlink CDATA #FIXED "http://www.w3.org/1999/xlink">
]>
<!-- Generated by Graphviz version 2.20.2 (Wed Jul &#160;9 19:59:08 GMT 2008)
     For user: jpaquette -->
<!-- Title: controllers_diagram Pages: 1 -->
<svg width="1156pt" height="1228pt"
 viewBox="0.00 0.00 1156.00 1228.00" xmlns="http://www.w3.org/2000/svg" xmlns:xlink="http://www.w3.org/1999/xlink">
<g id="graph0" class="graph" transform="scale(1 1) rotate(0) translate(4 1224)">
<title>controllers_diagram</title>
<polygon style="fill:white;stroke:white;" points="-4,4 -4,-1224 1152,-1224 1152,4 -4,4"/>
<!-- _diagram_info -->
<g id="node1" class="node"><title>_diagram_info</title>
<text text-anchor="start" x="976.5" y="-232.4" style="font-family:Times New Roman;font-size:11.00;">Controllers diagram</text>
<text text-anchor="start" x="976.5" y="-216.4" style="font-family:Times New Roman;font-size:11.00;">Date: Jul 27 2008 &#45; 10:06</text>
<text text-anchor="start" x="976.5" y="-200.4" style="font-family:Times New Roman;font-size:11.00;">Migration version: 1010</text>
<text text-anchor="start" x="976.5" y="-184.4" style="font-family:Times New Roman;font-size:11.00;">Generated by RailRoad 0.5.0</text>
</g>
<!-- AccountsController -->
<g id="node2" class="node"><title>AccountsController</title>
<polyline style="fill:none;stroke:black;" points="28,-785 130,-785 "/>
<path style="fill:none;stroke:black;" d="M130,-785C136,-785 142,-791 142,-797"/>
<polyline style="fill:none;stroke:black;" points="142,-797 142,-901 "/>
<path style="fill:none;stroke:black;" d="M142,-901C142,-907 136,-913 130,-913"/>
<polyline style="fill:none;stroke:black;" points="130,-913 28,-913 "/>
<path style="fill:none;stroke:black;" d="M28,-913C22,-913 16,-907 16,-901"/>
<polyline style="fill:none;stroke:black;" points="16,-901 16,-797 "/>
<path style="fill:none;stroke:black;" d="M16,-797C16,-791 22,-785 28,-785"/>
<text text-anchor="middle" x="79" y="-896.4" style="font-family:Times New Roman;font-size:11.00;">AccountsController</text>
<polyline style="fill:none;stroke:black;" points="16,-889 142,-889 "/>
<text text-anchor="start" x="24" y="-872.4" style="font-family:Times New Roman;font-size:11.00;">edit</text>
<text text-anchor="start" x="24" y="-856.4" style="font-family:Times New Roman;font-size:11.00;">show</text>
<text text-anchor="start" x="24" y="-840.4" style="font-family:Times New Roman;font-size:11.00;">update</text>
<polyline style="fill:none;stroke:black;" points="16,-833 142,-833 "/>
<polyline style="fill:none;stroke:black;" points="16,-809 142,-809 "/>
</g>
<!-- CompanyController -->
<g id="node3" class="node"><title>CompanyController</title>
<polyline style="fill:none;stroke:black;" points="328,-783 431,-783 "/>
<path style="fill:none;stroke:black;" d="M431,-783C437,-783 443,-789 443,-795"/>
<polyline style="fill:none;stroke:black;" points="443,-795 443,-963 "/>
<path style="fill:none;stroke:black;" d="M443,-963C443,-969 437,-975 431,-975"/>
<polyline style="fill:none;stroke:black;" points="431,-975 328,-975 "/>
<path style="fill:none;stroke:black;" d="M328,-975C322,-975 316,-969 316,-963"/>
<polyline style="fill:none;stroke:black;" points="316,-963 316,-795 "/>
<path style="fill:none;stroke:black;" d="M316,-795C316,-789 322,-783 328,-783"/>
<text text-anchor="middle" x="379" y="-958.4" style="font-family:Times New Roman;font-size:11.00;">CompanyController</text>
<polyline style="fill:none;stroke:black;" points="316,-951 443,-951 "/>
<text text-anchor="start" x="323.5" y="-934.4" style="font-family:Times New Roman;font-size:11.00;">add</text>
<text text-anchor="start" x="323.5" y="-918.4" style="font-family:Times New Roman;font-size:11.00;">create</text>
<text text-anchor="start" x="323.5" y="-902.4" style="font-family:Times New Roman;font-size:11.00;">delete</text>
<text text-anchor="start" x="323.5" y="-886.4" style="font-family:Times New Roman;font-size:11.00;">edit</text>
<text text-anchor="start" x="323.5" y="-870.4" style="font-family:Times New Roman;font-size:11.00;">list</text>
<text text-anchor="start" x="323.5" y="-854.4" style="font-family:Times New Roman;font-size:11.00;">show</text>
<text text-anchor="start" x="323.5" y="-838.4" style="font-family:Times New Roman;font-size:11.00;">update</text>
<polyline style="fill:none;stroke:black;" points="316,-831 443,-831 "/>
<polyline style="fill:none;stroke:black;" points="316,-807 443,-807 "/>
</g>
<!-- DatabaseTranslationController -->
<g id="node4" class="node"><title>DatabaseTranslationController</title>
<polyline style="fill:none;stroke:black;" points="588,-291 750,-291 "/>
<path style="fill:none;stroke:black;" d="M750,-291C756,-291 762,-297 762,-303"/>
<polyline style="fill:none;stroke:black;" points="762,-303 762,-423 "/>
<path style="fill:none;stroke:black;" d="M762,-423C762,-429 756,-435 750,-435"/>
<polyline style="fill:none;stroke:black;" points="750,-435 588,-435 "/>
<path style="fill:none;stroke:black;" d="M588,-435C582,-435 576,-429 576,-423"/>
<polyline style="fill:none;stroke:black;" points="576,-423 576,-303 "/>
<path style="fill:none;stroke:black;" d="M576,-303C576,-297 582,-291 588,-291"/>
<text text-anchor="middle" x="669" y="-418.4" style="font-family:Times New Roman;font-size:11.00;">DatabaseTranslationController</text>
<polyline style="fill:none;stroke:black;" points="576,-411 762,-411 "/>
<text text-anchor="start" x="584" y="-394.4" style="font-family:Times New Roman;font-size:11.00;">edit</text>
<text text-anchor="start" x="584" y="-378.4" style="font-family:Times New Roman;font-size:11.00;">generate</text>
<text text-anchor="start" x="584" y="-362.4" style="font-family:Times New Roman;font-size:11.00;">list</text>
<text text-anchor="start" x="584" y="-346.4" style="font-family:Times New Roman;font-size:11.00;">update</text>
<polyline style="fill:none;stroke:black;" points="576,-339 762,-339 "/>
<polyline style="fill:none;stroke:black;" points="576,-315 762,-315 "/>
</g>
<!-- DatabaseTranslationFieldController -->
<g id="node5" class="node"><title>DatabaseTranslationFieldController</title>
<polyline style="fill:none;stroke:black;" points="422,-1043 611,-1043 "/>
<path style="fill:none;stroke:black;" d="M611,-1043C617,-1043 623,-1049 623,-1055"/>
<polyline style="fill:none;stroke:black;" points="623,-1055 623,-1207 "/>
<path style="fill:none;stroke:black;" d="M623,-1207C623,-1213 617,-1219 611,-1219"/>
<polyline style="fill:none;stroke:black;" points="611,-1219 422,-1219 "/>
<path style="fill:none;stroke:black;" d="M422,-1219C416,-1219 410,-1213 410,-1207"/>
<polyline style="fill:none;stroke:black;" points="410,-1207 410,-1055 "/>
<path style="fill:none;stroke:black;" d="M410,-1055C410,-1049 416,-1043 422,-1043"/>
<text text-anchor="middle" x="516" y="-1202.4" style="font-family:Times New Roman;font-size:11.00;">DatabaseTranslationFieldController</text>
<polyline style="fill:none;stroke:black;" points="410,-1195 623,-1195 "/>
<text text-anchor="start" x="417.5" y="-1178.4" style="font-family:Times New Roman;font-size:11.00;">add</text>
<text text-anchor="start" x="417.5" y="-1162.4" style="font-family:Times New Roman;font-size:11.00;">create</text>
<text text-anchor="start" x="417.5" y="-1146.4" style="font-family:Times New Roman;font-size:11.00;">delete</text>
<text text-anchor="start" x="417.5" y="-1130.4" style="font-family:Times New Roman;font-size:11.00;">edit</text>
<text text-anchor="start" x="417.5" y="-1114.4" style="font-family:Times New Roman;font-size:11.00;">list</text>
<text text-anchor="start" x="417.5" y="-1098.4" style="font-family:Times New Roman;font-size:11.00;">update</text>
<polyline style="fill:none;stroke:black;" points="410,-1091 623,-1091 "/>
<polyline style="fill:none;stroke:black;" points="410,-1067 623,-1067 "/>
</g>
<!-- DimensionController -->
<g id="node6" class="node"><title>DimensionController</title>
<polyline style="fill:none;stroke:black;" points="909,-765 1017,-765 "/>
<path style="fill:none;stroke:black;" d="M1017,-765C1023,-765 1029,-771 1029,-777"/>
<polyline style="fill:none;stroke:black;" points="1029,-777 1029,-913 "/>
<path style="fill:none;stroke:black;" d="M1029,-913C1029,-919 1023,-925 1017,-925"/>
<polyline style="fill:none;stroke:black;" points="1017,-925 909,-925 "/>
<path style="fill:none;stroke:black;" d="M909,-925C903,-925 897,-919 897,-913"/>
<polyline style="fill:none;stroke:black;" points="897,-913 897,-777 "/>
<path style="fill:none;stroke:black;" d="M897,-777C897,-771 903,-765 909,-765"/>
<text text-anchor="middle" x="963" y="-908.4" style="font-family:Times New Roman;font-size:11.00;">DimensionController</text>
<polyline style="fill:none;stroke:black;" points="897,-901 1029,-901 "/>
<text text-anchor="start" x="905" y="-884.4" style="font-family:Times New Roman;font-size:11.00;">add</text>
<text text-anchor="start" x="905" y="-868.4" style="font-family:Times New Roman;font-size:11.00;">create</text>
<text text-anchor="start" x="905" y="-852.4" style="font-family:Times New Roman;font-size:11.00;">delete</text>
<text text-anchor="start" x="905" y="-836.4" style="font-family:Times New Roman;font-size:11.00;">edit</text>
<text text-anchor="start" x="905" y="-820.4" style="font-family:Times New Roman;font-size:11.00;">update</text>
<polyline style="fill:none;stroke:black;" points="897,-813 1029,-813 "/>
<polyline style="fill:none;stroke:black;" points="897,-789 1029,-789 "/>
</g>
<!-- HomeController -->
<g id="node7" class="node"><title>HomeController</title>
<polyline style="fill:none;stroke:black;" points="89,-1068 171,-1068 "/>
<path style="fill:none;stroke:black;" d="M171,-1068C177,-1068 183,-1074 183,-1080"/>
<polyline style="fill:none;stroke:black;" points="183,-1080 183,-1168 "/>
<path style="fill:none;stroke:black;" d="M183,-1168C183,-1174 177,-1180 171,-1180"/>
<polyline style="fill:none;stroke:black;" points="171,-1180 89,-1180 "/>
<path style="fill:none;stroke:black;" d="M89,-1180C83,-1180 77,-1174 77,-1168"/>
<polyline style="fill:none;stroke:black;" points="77,-1168 77,-1080 "/>
<path style="fill:none;stroke:black;" d="M77,-1080C77,-1074 83,-1068 89,-1068"/>
<text text-anchor="middle" x="130" y="-1163.4" style="font-family:Times New Roman;font-size:11.00;">HomeController</text>
<polyline style="fill:none;stroke:black;" points="77,-1156 183,-1156 "/>
<text text-anchor="start" x="85" y="-1139.4" style="font-family:Times New Roman;font-size:11.00;">index</text>
<text text-anchor="start" x="85" y="-1123.4" style="font-family:Times New Roman;font-size:11.00;">set_lang</text>
<polyline style="fill:none;stroke:black;" points="77,-1116 183,-1116 "/>
<polyline style="fill:none;stroke:black;" points="77,-1092 183,-1092 "/>
</g>
<!-- OpeningController -->
<g id="node8" class="node"><title>OpeningController</title>
<polyline style="fill:none;stroke:black;" points="842,-518 938,-518 "/>
<path style="fill:none;stroke:black;" d="M938,-518C944,-518 950,-524 950,-530"/>
<polyline style="fill:none;stroke:black;" points="950,-530 950,-698 "/>
<path style="fill:none;stroke:black;" d="M950,-698C950,-704 944,-710 938,-710"/>
<polyline style="fill:none;stroke:black;" points="938,-710 842,-710 "/>
<path style="fill:none;stroke:black;" d="M842,-710C836,-710 830,-704 830,-698"/>
<polyline style="fill:none;stroke:black;" points="830,-698 830,-530 "/>
<path style="fill:none;stroke:black;" d="M830,-530C830,-524 836,-518 842,-518"/>
<text text-anchor="middle" x="890" y="-693.4" style="font-family:Times New Roman;font-size:11.00;">OpeningController</text>
<polyline style="fill:none;stroke:black;" points="830,-686 950,-686 "/>
<text text-anchor="start" x="838" y="-669.4" style="font-family:Times New Roman;font-size:11.00;">add</text>
<text text-anchor="start" x="838" y="-653.4" style="font-family:Times New Roman;font-size:11.00;">create</text>
<text text-anchor="start" x="838" y="-637.4" style="font-family:Times New Roman;font-size:11.00;">delete</text>
<text text-anchor="start" x="838" y="-621.4" style="font-family:Times New Roman;font-size:11.00;">edit</text>
<text text-anchor="start" x="838" y="-605.4" style="font-family:Times New Roman;font-size:11.00;">list</text>
<text text-anchor="start" x="838" y="-589.4" style="font-family:Times New Roman;font-size:11.00;">show</text>
<text text-anchor="start" x="838" y="-573.4" style="font-family:Times New Roman;font-size:11.00;">update</text>
<polyline style="fill:none;stroke:black;" points="830,-566 950,-566 "/>
<polyline style="fill:none;stroke:black;" points="830,-542 950,-542 "/>
</g>
<!-- OptionController -->
<g id="node9" class="node"><title>OptionController</title>
<polyline style="fill:none;stroke:black;" points="472,-5 559,-5 "/>
<path style="fill:none;stroke:black;" d="M559,-5C565,-5 571,-11 571,-17"/>
<polyline style="fill:none;stroke:black;" points="571,-17 571,-185 "/>
<path style="fill:none;stroke:black;" d="M571,-185C571,-191 565,-197 559,-197"/>
<polyline style="fill:none;stroke:black;" points="559,-197 472,-197 "/>
<path style="fill:none;stroke:black;" d="M472,-197C466,-197 460,-191 460,-185"/>
<polyline style="fill:none;stroke:black;" points="460,-185 460,-17 "/>
<path style="fill:none;stroke:black;" d="M460,-17C460,-11 466,-5 472,-5"/>
<text text-anchor="middle" x="515" y="-180.4" style="font-family:Times New Roman;font-size:11.00;">OptionController</text>
<polyline style="fill:none;stroke:black;" points="460,-173 571,-173 "/>
<text text-anchor="start" x="467.5" y="-156.4" style="font-family:Times New Roman;font-size:11.00;">add</text>
<text text-anchor="start" x="467.5" y="-140.4" style="font-family:Times New Roman;font-size:11.00;">create</text>
<text text-anchor="start" x="467.5" y="-124.4" style="font-family:Times New Roman;font-size:11.00;">delete</text>
<text text-anchor="start" x="467.5" y="-108.4" style="font-family:Times New Roman;font-size:11.00;">edit</text>
<text text-anchor="start" x="467.5" y="-92.4" style="font-family:Times New Roman;font-size:11.00;">list</text>
<text text-anchor="start" x="467.5" y="-76.4" style="font-family:Times New Roman;font-size:11.00;">show</text>
<text text-anchor="start" x="467.5" y="-60.4" style="font-family:Times New Roman;font-size:11.00;">update</text>
<polyline style="fill:none;stroke:black;" points="460,-53 571,-53 "/>
<polyline style="fill:none;stroke:black;" points="460,-29 571,-29 "/>
</g>
<!-- PasswordsController -->
<g id="node10" class="node"><title>PasswordsController</title>
<polyline style="fill:none;stroke:black;" points="22,-285 132,-285 "/>
<path style="fill:none;stroke:black;" d="M132,-285C138,-285 144,-291 144,-297"/>
<polyline style="fill:none;stroke:black;" points="144,-297 144,-417 "/>
<path style="fill:none;stroke:black;" d="M144,-417C144,-423 138,-429 132,-429"/>
<polyline style="fill:none;stroke:black;" points="132,-429 22,-429 "/>
<path style="fill:none;stroke:black;" d="M22,-429C16,-429 10,-423 10,-417"/>
<polyline style="fill:none;stroke:black;" points="10,-417 10,-297 "/>
<path style="fill:none;stroke:black;" d="M10,-297C10,-291 16,-285 22,-285"/>
<text text-anchor="middle" x="77" y="-412.4" style="font-family:Times New Roman;font-size:11.00;">PasswordsController</text>
<polyline style="fill:none;stroke:black;" points="10,-405 144,-405 "/>
<text text-anchor="start" x="18" y="-388.4" style="font-family:Times New Roman;font-size:11.00;">create</text>
<text text-anchor="start" x="18" y="-372.4" style="font-family:Times New Roman;font-size:11.00;">edit</text>
<text text-anchor="start" x="18" y="-356.4" style="font-family:Times New Roman;font-size:11.00;">new</text>
<text text-anchor="start" x="18" y="-340.4" style="font-family:Times New Roman;font-size:11.00;">update</text>
<polyline style="fill:none;stroke:black;" points="10,-333 144,-333 "/>
<polyline style="fill:none;stroke:black;" points="10,-309 144,-309 "/>
</g>
<!-- QuotationController -->
<g id="node11" class="node"><title>QuotationController</title>
<polyline style="fill:none;stroke:black;" points="324,-262 428,-262 "/>
<path style="fill:none;stroke:black;" d="M428,-262C434,-262 440,-268 440,-274"/>
<polyline style="fill:none;stroke:black;" points="440,-274 440,-458 "/>
<path style="fill:none;stroke:black;" d="M440,-458C440,-464 434,-470 428,-470"/>
<polyline style="fill:none;stroke:black;" points="428,-470 324,-470 "/>
<path style="fill:none;stroke:black;" d="M324,-470C318,-470 312,-464 312,-458"/>
<polyline style="fill:none;stroke:black;" points="312,-458 312,-274 "/>
<path style="fill:none;stroke:black;" d="M312,-274C312,-268 318,-262 324,-262"/>
<text text-anchor="middle" x="376" y="-453.4" style="font-family:Times New Roman;font-size:11.00;">QuotationController</text>
<polyline style="fill:none;stroke:black;" points="312,-446 440,-446 "/>
<text text-anchor="start" x="320" y="-429.4" style="font-family:Times New Roman;font-size:11.00;">add</text>
<text text-anchor="start" x="320" y="-413.4" style="font-family:Times New Roman;font-size:11.00;">create</text>
<text text-anchor="start" x="320" y="-397.4" style="font-family:Times New Roman;font-size:11.00;">delete</text>
<text text-anchor="start" x="320" y="-381.4" style="font-family:Times New Roman;font-size:11.00;">edit</text>
<text text-anchor="start" x="320" y="-365.4" style="font-family:Times New Roman;font-size:11.00;">list</text>
<text text-anchor="start" x="320" y="-349.4" style="font-family:Times New Roman;font-size:11.00;">print</text>
<text text-anchor="start" x="320" y="-333.4" style="font-family:Times New Roman;font-size:11.00;">show</text>
<text text-anchor="start" x="320" y="-317.4" style="font-family:Times New Roman;font-size:11.00;">update</text>
<polyline style="fill:none;stroke:black;" points="312,-310 440,-310 "/>
<polyline style="fill:none;stroke:black;" points="312,-286 440,-286 "/>
</g>
<!-- QuotationLineController -->
<g id="node12" class="node"><title>QuotationLineController</title>
<polyline style="fill:none;stroke:black;" points="899,-287 1027,-287 "/>
<path style="fill:none;stroke:black;" d="M1027,-287C1033,-287 1039,-293 1039,-299"/>
<polyline style="fill:none;stroke:black;" points="1039,-299 1039,-467 "/>
<path style="fill:none;stroke:black;" d="M1039,-467C1039,-473 1033,-479 1027,-479"/>
<polyline style="fill:none;stroke:black;" points="1027,-479 899,-479 "/>
<path style="fill:none;stroke:black;" d="M899,-479C893,-479 887,-473 887,-467"/>
<polyline style="fill:none;stroke:black;" points="887,-467 887,-299 "/>
<path style="fill:none;stroke:black;" d="M887,-299C887,-293 893,-287 899,-287"/>
<text text-anchor="middle" x="963" y="-462.4" style="font-family:Times New Roman;font-size:11.00;">QuotationLineController</text>
<polyline style="fill:none;stroke:black;" points="887,-455 1039,-455 "/>
<text text-anchor="start" x="895" y="-438.4" style="font-family:Times New Roman;font-size:11.00;">add</text>
<text text-anchor="start" x="895" y="-422.4" style="font-family:Times New Roman;font-size:11.00;">add2</text>
<text text-anchor="start" x="895" y="-406.4" style="font-family:Times New Roman;font-size:11.00;">create</text>
<text text-anchor="start" x="895" y="-390.4" style="font-family:Times New Roman;font-size:11.00;">delete</text>
<text text-anchor="start" x="895" y="-374.4" style="font-family:Times New Roman;font-size:11.00;">edit</text>
<text text-anchor="start" x="895" y="-358.4" style="font-family:Times New Roman;font-size:11.00;">update</text>
<polyline style="fill:none;stroke:black;" points="887,-351 1039,-351 "/>
<polyline style="fill:none;stroke:black;" points="887,-327 1039,-327 "/>
<text text-anchor="start" x="895" y="-310.4" style="font-family:Times New Roman;font-size:11.00;">calculate_dimensions</text>
<text text-anchor="start" x="895" y="-294.4" style="font-family:Times New Roman;font-size:11.00;">calculate_price</text>
</g>
<!-- RolesController -->
<g id="node13" class="node"><title>RolesController</title>
<polyline style="fill:none;stroke:black;" points="96,-35 177,-35 "/>
<path style="fill:none;stroke:black;" d="M177,-35C183,-35 189,-41 189,-47"/>
<polyline style="fill:none;stroke:black;" points="189,-47 189,-151 "/>
<path style="fill:none;stroke:black;" d="M189,-151C189,-157 183,-163 177,-163"/>
<polyline style="fill:none;stroke:black;" points="177,-163 96,-163 "/>
<path style="fill:none;stroke:black;" d="M96,-163C90,-163 84,-157 84,-151"/>
<polyline style="fill:none;stroke:black;" points="84,-151 84,-47 "/>
<path style="fill:none;stroke:black;" d="M84,-47C84,-41 90,-35 96,-35"/>
<text text-anchor="middle" x="136" y="-146.4" style="font-family:Times New Roman;font-size:11.00;">RolesController</text>
<polyline style="fill:none;stroke:black;" points="84,-139 189,-139 "/>
<text text-anchor="start" x="91.5" y="-122.4" style="font-family:Times New Roman;font-size:11.00;">destroy</text>
<text text-anchor="start" x="91.5" y="-106.4" style="font-family:Times New Roman;font-size:11.00;">index</text>
<text text-anchor="start" x="91.5" y="-90.4" style="font-family:Times New Roman;font-size:11.00;">update</text>
<polyline style="fill:none;stroke:black;" points="84,-83 189,-83 "/>
<polyline style="fill:none;stroke:black;" points="84,-59 189,-59 "/>
</g>
<!-- SerieController -->
<g id="node14" class="node"><title>SerieController</title>
<polyline style="fill:none;stroke:black;" points="13,-440 139,-440 "/>
<path style="fill:none;stroke:black;" d="M139,-440C145,-440 151,-446 151,-452"/>
<polyline style="fill:none;stroke:black;" points="151,-452 151,-748 "/>
<path style="fill:none;stroke:black;" d="M151,-748C151,-754 145,-760 139,-760"/>
<polyline style="fill:none;stroke:black;" points="139,-760 13,-760 "/>
<path style="fill:none;stroke:black;" d="M13,-760C7,-760 1,-754 1,-748"/>
<polyline style="fill:none;stroke:black;" points="1,-748 1,-452 "/>
<path style="fill:none;stroke:black;" d="M1,-452C1,-446 7,-440 13,-440"/>
<text text-anchor="middle" x="76" y="-743.4" style="font-family:Times New Roman;font-size:11.00;">SerieController</text>
<polyline style="fill:none;stroke:black;" points="1,-736 151,-736 "/>
<text text-anchor="start" x="9" y="-719.4" style="font-family:Times New Roman;font-size:11.00;">add</text>
<text text-anchor="start" x="9" y="-703.4" style="font-family:Times New Roman;font-size:11.00;">create</text>
<text text-anchor="start" x="9" y="-687.4" style="font-family:Times New Roman;font-size:11.00;">delete</text>
<text text-anchor="start" x="9" y="-671.4" style="font-family:Times New Roman;font-size:11.00;">edit</text>
<text text-anchor="start" x="9" y="-655.4" style="font-family:Times New Roman;font-size:11.00;">edit_openings</text>
<text text-anchor="start" x="9" y="-639.4" style="font-family:Times New Roman;font-size:11.00;">edit_options</text>
<text text-anchor="start" x="9" y="-623.4" style="font-family:Times New Roman;font-size:11.00;">edit_prices</text>
<text text-anchor="start" x="9" y="-607.4" style="font-family:Times New Roman;font-size:11.00;">import_prices</text>
<text text-anchor="start" x="9" y="-591.4" style="font-family:Times New Roman;font-size:11.00;">import_prices_selection</text>
<text text-anchor="start" x="9" y="-575.4" style="font-family:Times New Roman;font-size:11.00;">list</text>
<text text-anchor="start" x="9" y="-559.4" style="font-family:Times New Roman;font-size:11.00;">show</text>
<text text-anchor="start" x="9" y="-543.4" style="font-family:Times New Roman;font-size:11.00;">update</text>
<text text-anchor="start" x="9" y="-527.4" style="font-family:Times New Roman;font-size:11.00;">update_openings</text>
<text text-anchor="start" x="9" y="-511.4" style="font-family:Times New Roman;font-size:11.00;">update_options</text>
<text text-anchor="start" x="9" y="-495.4" style="font-family:Times New Roman;font-size:11.00;">update_prices</text>
<polyline style="fill:none;stroke:black;" points="1,-488 151,-488 "/>
<polyline style="fill:none;stroke:black;" points="1,-464 151,-464 "/>
</g>
<!-- SessionController -->
<g id="node15" class="node"><title>SessionController</title>
<polyline style="fill:none;stroke:black;" points="605,-786 736,-786 "/>
<path style="fill:none;stroke:black;" d="M736,-786C742,-786 748,-792 748,-798"/>
<polyline style="fill:none;stroke:black;" points="748,-798 748,-934 "/>
<path style="fill:none;stroke:black;" d="M748,-934C748,-940 742,-946 736,-946"/>
<polyline style="fill:none;stroke:black;" points="736,-946 605,-946 "/>
<path style="fill:none;stroke:black;" d="M605,-946C599,-946 593,-940 593,-934"/>
<polyline style="fill:none;stroke:black;" points="593,-934 593,-798 "/>
<path style="fill:none;stroke:black;" d="M593,-798C593,-792 599,-786 605,-786"/>
<text text-anchor="middle" x="670" y="-929.4" style="font-family:Times New Roman;font-size:11.00;">SessionController</text>
<polyline style="fill:none;stroke:black;" points="593,-922 748,-922 "/>
<text text-anchor="start" x="600.5" y="-905.4" style="font-family:Times New Roman;font-size:11.00;">create</text>
<text text-anchor="start" x="600.5" y="-889.4" style="font-family:Times New Roman;font-size:11.00;">destroy</text>
<text text-anchor="start" x="600.5" y="-873.4" style="font-family:Times New Roman;font-size:11.00;">new</text>
<text text-anchor="start" x="600.5" y="-857.4" style="font-family:Times New Roman;font-size:11.00;">show</text>
<polyline style="fill:none;stroke:black;" points="593,-850 748,-850 "/>
<text text-anchor="start" x="600.5" y="-833.4" style="font-family:Times New Roman;font-size:11.00;">password_authentication</text>
<polyline style="fill:none;stroke:black;" points="593,-826 748,-826 "/>
<text text-anchor="start" x="600.5" y="-809.4" style="font-family:Times New Roman;font-size:11.00;">failed_login</text>
<text text-anchor="start" x="600.5" y="-793.4" style="font-family:Times New Roman;font-size:11.00;">successful_login</text>
</g>
<!-- ShapeController -->
<g id="node16" class="node"><title>ShapeController</title>
<polyline style="fill:none;stroke:black;" points="854,-1027 937,-1027 "/>
<path style="fill:none;stroke:black;" d="M937,-1027C943,-1027 949,-1033 949,-1039"/>
<polyline style="fill:none;stroke:black;" points="949,-1039 949,-1207 "/>
<path style="fill:none;stroke:black;" d="M949,-1207C949,-1213 943,-1219 937,-1219"/>
<polyline style="fill:none;stroke:black;" points="937,-1219 854,-1219 "/>
<path style="fill:none;stroke:black;" d="M854,-1219C848,-1219 842,-1213 842,-1207"/>
<polyline style="fill:none;stroke:black;" points="842,-1207 842,-1039 "/>
<path style="fill:none;stroke:black;" d="M842,-1039C842,-1033 848,-1027 854,-1027"/>
<text text-anchor="middle" x="895" y="-1202.4" style="font-family:Times New Roman;font-size:11.00;">ShapeController</text>
<polyline style="fill:none;stroke:black;" points="842,-1195 949,-1195 "/>
<text text-anchor="start" x="849.5" y="-1178.4" style="font-family:Times New Roman;font-size:11.00;">add</text>
<text text-anchor="start" x="849.5" y="-1162.4" style="font-family:Times New Roman;font-size:11.00;">create</text>
<text text-anchor="start" x="849.5" y="-1146.4" style="font-family:Times New Roman;font-size:11.00;">delete</text>
<text text-anchor="start" x="849.5" y="-1130.4" style="font-family:Times New Roman;font-size:11.00;">edit</text>
<text text-anchor="start" x="849.5" y="-1114.4" style="font-family:Times New Roman;font-size:11.00;">list</text>
<text text-anchor="start" x="849.5" y="-1098.4" style="font-family:Times New Roman;font-size:11.00;">show</text>
<text text-anchor="start" x="849.5" y="-1082.4" style="font-family:Times New Roman;font-size:11.00;">update</text>
<polyline style="fill:none;stroke:black;" points="842,-1075 949,-1075 "/>
<polyline style="fill:none;stroke:black;" points="842,-1051 949,-1051 "/>
</g>
<!-- TranslationController -->
<g id="node17" class="node"><title>TranslationController</title>
<polyline style="fill:none;stroke:black;" points="284,-538 395,-538 "/>
<path style="fill:none;stroke:black;" d="M395,-538C401,-538 407,-544 407,-550"/>
<polyline style="fill:none;stroke:black;" points="407,-550 407,-702 "/>
<path style="fill:none;stroke:black;" d="M407,-702C407,-708 401,-714 395,-714"/>
<polyline style="fill:none;stroke:black;" points="395,-714 284,-714 "/>
<path style="fill:none;stroke:black;" d="M284,-714C278,-714 272,-708 272,-702"/>
<polyline style="fill:none;stroke:black;" points="272,-702 272,-550 "/>
<path style="fill:none;stroke:black;" d="M272,-550C272,-544 278,-538 284,-538"/>
<text text-anchor="middle" x="339" y="-697.4" style="font-family:Times New Roman;font-size:11.00;">TranslationController</text>
<polyline style="fill:none;stroke:black;" points="272,-690 407,-690 "/>
<text text-anchor="start" x="279.5" y="-673.4" style="font-family:Times New Roman;font-size:11.00;">add</text>
<text text-anchor="start" x="279.5" y="-657.4" style="font-family:Times New Roman;font-size:11.00;">create</text>
<text text-anchor="start" x="279.5" y="-641.4" style="font-family:Times New Roman;font-size:11.00;">delete</text>
<text text-anchor="start" x="279.5" y="-625.4" style="font-family:Times New Roman;font-size:11.00;">edit</text>
<text text-anchor="start" x="279.5" y="-609.4" style="font-family:Times New Roman;font-size:11.00;">list</text>
<text text-anchor="start" x="279.5" y="-593.4" style="font-family:Times New Roman;font-size:11.00;">update</text>
<polyline style="fill:none;stroke:black;" points="272,-586 407,-586 "/>
<polyline style="fill:none;stroke:black;" points="272,-562 407,-562 "/>
</g>
<!-- UsersController -->
<g id="node18" class="node"><title>UsersController</title>
<polyline style="fill:none;stroke:black;" points="849,-1 940,-1 "/>
<path style="fill:none;stroke:black;" d="M940,-1C946,-1 952,-7 952,-13"/>
<polyline style="fill:none;stroke:black;" points="952,-13 952,-197 "/>
<path style="fill:none;stroke:black;" d="M952,-197C952,-203 946,-209 940,-209"/>
<polyline style="fill:none;stroke:black;" points="940,-209 849,-209 "/>
<path style="fill:none;stroke:black;" d="M849,-209C843,-209 837,-203 837,-197"/>
<polyline style="fill:none;stroke:black;" points="837,-197 837,-13 "/>
<path style="fill:none;stroke:black;" d="M837,-13C837,-7 843,-1 849,-1"/>
<text text-anchor="middle" x="894" y="-192.4" style="font-family:Times New Roman;font-size:11.00;">UsersController</text>
<polyline style="fill:none;stroke:black;" points="837,-185 952,-185 "/>
<text text-anchor="start" x="844.5" y="-168.4" style="font-family:Times New Roman;font-size:11.00;">create</text>
<text text-anchor="start" x="844.5" y="-152.4" style="font-family:Times New Roman;font-size:11.00;">destroy</text>
<text text-anchor="start" x="844.5" y="-136.4" style="font-family:Times New Roman;font-size:11.00;">edit</text>
<text text-anchor="start" x="844.5" y="-120.4" style="font-family:Times New Roman;font-size:11.00;">enable</text>
<text text-anchor="start" x="844.5" y="-104.4" style="font-family:Times New Roman;font-size:11.00;">index</text>
<text text-anchor="start" x="844.5" y="-88.4" style="font-family:Times New Roman;font-size:11.00;">new</text>
<text text-anchor="start" x="844.5" y="-72.4" style="font-family:Times New Roman;font-size:11.00;">show</text>
<text text-anchor="start" x="844.5" y="-56.4" style="font-family:Times New Roman;font-size:11.00;">update</text>
<polyline style="fill:none;stroke:black;" points="837,-49 952,-49 "/>
<text text-anchor="start" x="844.5" y="-32.4" style="font-family:Times New Roman;font-size:11.00;">get_user_for_edit</text>
<polyline style="fill:none;stroke:black;" points="837,-25 952,-25 "/>
</g>
<!-- ApplicationController -->
<g id="node19" class="node"><title>ApplicationController</title>
<polyline style="fill:none;stroke:black;" points="536,-566 649,-566 "/>
<path style="fill:none;stroke:black;" d="M649,-566C655,-566 661,-572 661,-578"/>
<polyline style="fill:none;stroke:black;" points="661,-578 661,-650 "/>
<path style="fill:none;stroke:black;" d="M661,-650C661,-656 655,-662 649,-662"/>
<polyline style="fill:none;stroke:black;" points="649,-662 536,-662 "/>
<path style="fill:none;stroke:black;" d="M536,-662C530,-662 524,-656 524,-650"/>
<polyline style="fill:none;stroke:black;" points="524,-650 524,-578 "/>
<path style="fill:none;stroke:black;" d="M524,-578C524,-572 530,-566 536,-566"/>
<text text-anchor="middle" x="592" y="-645.4" style="font-family:Times New Roman;font-size:11.00;">ApplicationController</text>
<polyline style="fill:none;stroke:black;" points="524,-638 661,-638 "/>
<text text-anchor="start" x="531.5" y="-621.4" style="font-family:Times New Roman;font-size:11.00;">debug_log</text>
<polyline style="fill:none;stroke:black;" points="524,-614 661,-614 "/>
<polyline style="fill:none;stroke:black;" points="524,-590 661,-590 "/>
</g>
<!-- ApplicationController&#45;&gt;AccountsController -->
<g id="edge2" class="edge"><title>ApplicationController&#45;&gt;AccountsController</title>
<path style="fill:none;stroke:black;" d="M515,-661C483,-679 446,-701 410,-717 319,-761 210,-802 142,-827"/>
<polygon style="fill:none;stroke:black;" points="516.958,-663.916 524,-656 513.559,-657.797 516.958,-663.916"/>
</g>
<!-- ApplicationController&#45;&gt;CompanyController -->
<g id="edge4" class="edge"><title>ApplicationController&#45;&gt;CompanyController</title>
<path style="fill:none;stroke:black;" d="M547,-670C517,-708 477,-758 443,-799"/>
<polygon style="fill:none;stroke:black;" points="549.8,-672.1 553,-662 544.2,-667.9 549.8,-672.1"/>
</g>
<!-- ApplicationController&#45;&gt;DatabaseTranslationController -->
<g id="edge6" class="edge"><title>ApplicationController&#45;&gt;DatabaseTranslationController</title>
<path style="fill:none;stroke:black;" d="M610,-556C621,-520 635,-473 647,-435"/>
<polygon style="fill:none;stroke:black;" points="606.521,-555.416 607,-566 613.226,-557.427 606.521,-555.416"/>
</g>
<!-- ApplicationController&#45;&gt;DatabaseTranslationFieldController -->
<g id="edge8" class="edge"><title>ApplicationController&#45;&gt;DatabaseTranslationFieldController</title>
<path style="fill:none;stroke:black;" d="M583,-672C570,-763 544,-937 529,-1043"/>
<polygon style="fill:none;stroke:black;" points="586.471,-672.492 585,-662 579.607,-671.119 586.471,-672.492"/>
</g>
<!-- ApplicationController&#45;&gt;DimensionController -->
<g id="edge10" class="edge"><title>ApplicationController&#45;&gt;DimensionController</title>
<path style="fill:none;stroke:black;" d="M670,-662C737,-704 834,-764 897,-804"/>
<polygon style="fill:none;stroke:black;" points="671.441,-658.797 661,-657 668.042,-664.916 671.441,-658.797"/>
</g>
<!-- ApplicationController&#45;&gt;HomeController -->
<g id="edge12" class="edge"><title>ApplicationController&#45;&gt;HomeController</title>
<path style="fill:none;stroke:black;" d="M515,-658C435,-705 321,-771 313,-780 231,-865 176,-994 149,-1068"/>
<polygon style="fill:none;stroke:black;" points="516.958,-660.916 524,-653 513.559,-654.797 516.958,-660.916"/>
</g>
<!-- ApplicationController&#45;&gt;OpeningController -->
<g id="edge14" class="edge"><title>ApplicationController&#45;&gt;OpeningController</title>
<path style="fill:none;stroke:black;" d="M671,-614C721,-614 784,-614 830,-614"/>
<polygon style="fill:none;stroke:black;" points="671,-610.5 661,-614 671,-617.5 671,-610.5"/>
</g>
<!-- ApplicationController&#45;&gt;OptionController -->
<g id="edge16" class="edge"><title>ApplicationController&#45;&gt;OptionController</title>
<path style="fill:none;stroke:black;" d="M583,-556C570,-469 545,-303 530,-197"/>
<polygon style="fill:none;stroke:black;" points="579.607,-556.881 585,-566 586.471,-555.508 579.607,-556.881"/>
</g>
<!-- ApplicationController&#45;&gt;PasswordsController -->
<g id="edge18" class="edge"><title>ApplicationController&#45;&gt;PasswordsController</title>
<path style="fill:none;stroke:black;" d="M515,-576C457,-548 378,-508 309,-473 253,-446 190,-414 144,-391"/>
<polygon style="fill:none;stroke:black;" points="513.44,-579.137 524,-580 516.283,-572.74 513.44,-579.137"/>
</g>
<!-- ApplicationController&#45;&gt;QuotationController -->
<g id="edge20" class="edge"><title>ApplicationController&#45;&gt;QuotationController</title>
<path style="fill:none;stroke:black;" d="M543,-558C513,-523 473,-478 440,-440"/>
<polygon style="fill:none;stroke:black;" points="540.781,-560.779 550,-566 546.049,-556.169 540.781,-560.779"/>
</g>
<!-- ApplicationController&#45;&gt;QuotationLineController -->
<g id="edge22" class="edge"><title>ApplicationController&#45;&gt;QuotationLineController</title>
<path style="fill:none;stroke:black;" d="M670,-565C734,-526 824,-470 887,-431"/>
<polygon style="fill:none;stroke:black;" points="667.379,-562.541 661,-571 671.262,-568.365 667.379,-562.541"/>
</g>
<!-- ApplicationController&#45;&gt;RolesController -->
<g id="edge24" class="edge"><title>ApplicationController&#45;&gt;RolesController</title>
<path style="fill:none;stroke:black;" d="M515,-579C436,-543 324,-489 309,-473 222,-384 174,-244 151,-163"/>
<polygon style="fill:none;stroke:black;" points="513.44,-582.137 524,-583 516.283,-575.74 513.44,-582.137"/>
</g>
<!-- ApplicationController&#45;&gt;SerieController -->
<g id="edge26" class="edge"><title>ApplicationController&#45;&gt;SerieController</title>
<path style="fill:none;stroke:black;" d="M515,-572C483,-557 445,-542 410,-535 349,-522 331,-525 269,-535 229,-541 186,-555 151,-568"/>
<polygon style="fill:none;stroke:black;" points="513.44,-575.137 524,-576 516.283,-568.74 513.44,-575.137"/>
</g>
<!-- ApplicationController&#45;&gt;SessionController -->
<g id="edge28" class="edge"><title>ApplicationController&#45;&gt;SessionController</title>
<path style="fill:none;stroke:black;" d="M610,-672C621,-706 634,-749 645,-786"/>
<polygon style="fill:none;stroke:black;" points="613.226,-670.573 607,-662 606.521,-672.584 613.226,-670.573"/>
</g>
<!-- ApplicationController&#45;&gt;ShapeController -->
<g id="edge30" class="edge"><title>ApplicationController&#45;&gt;ShapeController</title>
<path style="fill:none;stroke:black;" d="M654,-669C686,-701 724,-741 751,-783 801,-859 840,-956 865,-1027"/>
<polygon style="fill:none;stroke:black;" points="656.546,-666.596 647,-662 651.596,-671.546 656.546,-666.596"/>
</g>
<!-- ApplicationController&#45;&gt;TranslationController -->
<g id="edge32" class="edge"><title>ApplicationController&#45;&gt;TranslationController</title>
<path style="fill:none;stroke:black;" d="M514,-618C480,-619 440,-621 407,-623"/>
<polygon style="fill:none;stroke:black;" points="514.398,-621.478 524,-617 513.701,-614.512 514.398,-621.478"/>
</g>
<!-- ApplicationController&#45;&gt;UsersController -->
<g id="edge34" class="edge"><title>ApplicationController&#45;&gt;UsersController</title>
<path style="fill:none;stroke:black;" d="M659,-559C694,-527 736,-484 765,-438 811,-367 844,-278 866,-209"/>
<polygon style="fill:none;stroke:black;" points="656.221,-556.781 651,-566 660.831,-562.049 656.221,-556.781"/>
</g>
</g>
</svg>
