<?xml version="1.0" encoding="UTF-8" standalone="no"?>
<!DOCTYPE svg PUBLIC "-//W3C//DTD SVG 1.0//EN"
 "http://www.w3.org/TR/2001/REC-SVG-20010904/DTD/svg10.dtd" [
 <!ATTLIST svg xmlns:xlink CDATA #FIXED "http://www.w3.org/1999/xlink">
]>
<!-- Generated by Graphviz version 2.20.2 (Wed Jul &#160;9 19:59:08 GMT 2008)
     For user: jpaquette -->
<!-- Title: models_diagram Pages: 1 -->
<svg width="2246pt" height="956pt"
 viewBox="0.00 0.00 2246.00 956.00" xmlns="http://www.w3.org/2000/svg" xmlns:xlink="http://www.w3.org/1999/xlink">
<g id="graph0" class="graph" transform="scale(1 1) rotate(0) translate(4 952)">
<title>models_diagram</title>
<polygon style="fill:white;stroke:white;" points="-4,4 -4,-952 2242,-952 2242,4 -4,4"/>
<!-- _diagram_info -->
<g id="node1" class="node"><title>_diagram_info</title>
<text text-anchor="start" x="7.5" y="-911.4" style="font-family:Times New Roman;font-size:11.00;">Models diagram</text>
<text text-anchor="start" x="7.5" y="-895.4" style="font-family:Times New Roman;font-size:11.00;">Date: Jul 27 2008 &#45; 10:05</text>
<text text-anchor="start" x="7.5" y="-879.4" style="font-family:Times New Roman;font-size:11.00;">Migration version: 1010</text>
<text text-anchor="start" x="7.5" y="-863.4" style="font-family:Times New Roman;font-size:11.00;">Generated by RailRoad 0.5.0</text>
</g>
<!-- Company -->
<g id="node2" class="node"><title>Company</title>
<polyline style="fill:none;stroke:black;" points="208,-836 281,-836 "/>
<path style="fill:none;stroke:black;" d="M281,-836C287,-836 293,-842 293,-848"/>
<polyline style="fill:none;stroke:black;" points="293,-848 293,-936 "/>
<path style="fill:none;stroke:black;" d="M293,-936C293,-942 287,-948 281,-948"/>
<polyline style="fill:none;stroke:black;" points="281,-948 208,-948 "/>
<path style="fill:none;stroke:black;" d="M208,-948C202,-948 196,-942 196,-936"/>
<polyline style="fill:none;stroke:black;" points="196,-936 196,-848 "/>
<path style="fill:none;stroke:black;" d="M196,-848C196,-842 202,-836 208,-836"/>
<text text-anchor="middle" x="244" y="-931.4" style="font-family:Times New Roman;font-size:11.00;">Company</text>
<polyline style="fill:none;stroke:black;" points="196,-924 293,-924 "/>
<text text-anchor="start" x="203.5" y="-907.4" style="font-family:Times New Roman;font-size:11.00;">name :string</text>
<text text-anchor="start" x="203.5" y="-891.4" style="font-family:Times New Roman;font-size:11.00;">address :string</text>
<text text-anchor="start" x="203.5" y="-875.4" style="font-family:Times New Roman;font-size:11.00;">phone :string</text>
<text text-anchor="start" x="203.5" y="-859.4" style="font-family:Times New Roman;font-size:11.00;">fax :string</text>
<text text-anchor="start" x="203.5" y="-843.4" style="font-family:Times New Roman;font-size:11.00;">logo :string</text>
</g>
<!-- DatabaseTranslation -->
<g id="node3" class="node"><title>DatabaseTranslation</title>
<polyline style="fill:none;stroke:black;" points="322,-844 427,-844 "/>
<path style="fill:none;stroke:black;" d="M427,-844C433,-844 439,-850 439,-856"/>
<polyline style="fill:none;stroke:black;" points="439,-856 439,-928 "/>
<path style="fill:none;stroke:black;" d="M439,-928C439,-934 433,-940 427,-940"/>
<polyline style="fill:none;stroke:black;" points="427,-940 322,-940 "/>
<path style="fill:none;stroke:black;" d="M322,-940C316,-940 310,-934 310,-928"/>
<polyline style="fill:none;stroke:black;" points="310,-928 310,-856 "/>
<path style="fill:none;stroke:black;" d="M310,-856C310,-850 316,-844 322,-844"/>
<text text-anchor="middle" x="374" y="-923.4" style="font-family:Times New Roman;font-size:11.00;">DatabaseTranslation</text>
<polyline style="fill:none;stroke:black;" points="310,-916 439,-916 "/>
<text text-anchor="start" x="317.5" y="-899.4" style="font-family:Times New Roman;font-size:11.00;">table :string</text>
<text text-anchor="start" x="317.5" y="-883.4" style="font-family:Times New Roman;font-size:11.00;">field :string</text>
<text text-anchor="start" x="317.5" y="-867.4" style="font-family:Times New Roman;font-size:11.00;">fr :text</text>
<text text-anchor="start" x="317.5" y="-851.4" style="font-family:Times New Roman;font-size:11.00;">en :text</text>
</g>
<!-- DatabaseTranslationField -->
<g id="node4" class="node"><title>DatabaseTranslationField</title>
<polyline style="fill:none;stroke:black;" points="468,-860 601,-860 "/>
<path style="fill:none;stroke:black;" d="M601,-860C607,-860 613,-866 613,-872"/>
<polyline style="fill:none;stroke:black;" points="613,-872 613,-912 "/>
<path style="fill:none;stroke:black;" d="M613,-912C613,-918 607,-924 601,-924"/>
<polyline style="fill:none;stroke:black;" points="601,-924 468,-924 "/>
<path style="fill:none;stroke:black;" d="M468,-924C462,-924 456,-918 456,-912"/>
<polyline style="fill:none;stroke:black;" points="456,-912 456,-872 "/>
<path style="fill:none;stroke:black;" d="M456,-872C456,-866 462,-860 468,-860"/>
<text text-anchor="middle" x="534" y="-907.4" style="font-family:Times New Roman;font-size:11.00;">DatabaseTranslationField</text>
<polyline style="fill:none;stroke:black;" points="456,-900 613,-900 "/>
<text text-anchor="start" x="463.5" y="-883.4" style="font-family:Times New Roman;font-size:11.00;">table :string</text>
<text text-anchor="start" x="463.5" y="-867.4" style="font-family:Times New Roman;font-size:11.00;">field :string</text>
</g>
<!-- Dimension -->
<g id="node5" class="node"><title>Dimension</title>
<polyline style="fill:none;stroke:black;" points="729,-640 781,-640 "/>
<path style="fill:none;stroke:black;" d="M781,-640C787,-640 793,-646 793,-652"/>
<polyline style="fill:none;stroke:black;" points="793,-652 793,-676 "/>
<path style="fill:none;stroke:black;" d="M793,-676C793,-682 787,-688 781,-688"/>
<polyline style="fill:none;stroke:black;" points="781,-688 729,-688 "/>
<path style="fill:none;stroke:black;" d="M729,-688C723,-688 717,-682 717,-676"/>
<polyline style="fill:none;stroke:black;" points="717,-676 717,-652 "/>
<path style="fill:none;stroke:black;" d="M717,-652C717,-646 723,-640 729,-640"/>
<text text-anchor="middle" x="755" y="-671.4" style="font-family:Times New Roman;font-size:11.00;">Dimension</text>
<polyline style="fill:none;stroke:black;" points="717,-664 793,-664 "/>
<text text-anchor="start" x="725" y="-647.4" style="font-family:Times New Roman;font-size:11.00;">value :float</text>
</g>
<!-- Height -->
<g id="node6" class="node"><title>Height</title>
<polyline style="fill:none;stroke:black;" points="823,-348 875,-348 "/>
<path style="fill:none;stroke:black;" d="M875,-348C881,-348 887,-354 887,-360"/>
<polyline style="fill:none;stroke:black;" points="887,-360 887,-384 "/>
<path style="fill:none;stroke:black;" d="M887,-384C887,-390 881,-396 875,-396"/>
<polyline style="fill:none;stroke:black;" points="875,-396 823,-396 "/>
<path style="fill:none;stroke:black;" d="M823,-396C817,-396 811,-390 811,-384"/>
<polyline style="fill:none;stroke:black;" points="811,-384 811,-360 "/>
<path style="fill:none;stroke:black;" d="M811,-360C811,-354 817,-348 823,-348"/>
<text text-anchor="middle" x="849" y="-379.4" style="font-family:Times New Roman;font-size:11.00;">Height</text>
<polyline style="fill:none;stroke:black;" points="811,-372 887,-372 "/>
<text text-anchor="start" x="819" y="-355.4" style="font-family:Times New Roman;font-size:11.00;">value :float</text>
</g>
<!-- Dimension&#45;&gt;Height -->
<g id="edge4" class="edge"><title>Dimension&#45;&gt;Height</title>
<path style="fill:none;stroke:black;" d="M766,-630C785,-570 824,-448 841,-396"/>
<polygon style="fill:none;stroke:black;" points="762.521,-629.416 763,-640 769.226,-631.427 762.521,-629.416"/>
</g>
<!-- Width -->
<g id="node26" class="node"><title>Width</title>
<polyline style="fill:none;stroke:black;" points="729,-348 781,-348 "/>
<path style="fill:none;stroke:black;" d="M781,-348C787,-348 793,-354 793,-360"/>
<polyline style="fill:none;stroke:black;" points="793,-360 793,-384 "/>
<path style="fill:none;stroke:black;" d="M793,-384C793,-390 787,-396 781,-396"/>
<polyline style="fill:none;stroke:black;" points="781,-396 729,-396 "/>
<path style="fill:none;stroke:black;" d="M729,-396C723,-396 717,-390 717,-384"/>
<polyline style="fill:none;stroke:black;" points="717,-384 717,-360 "/>
<path style="fill:none;stroke:black;" d="M717,-360C717,-354 723,-348 729,-348"/>
<text text-anchor="middle" x="755" y="-379.4" style="font-family:Times New Roman;font-size:11.00;">Width</text>
<polyline style="fill:none;stroke:black;" points="717,-372 793,-372 "/>
<text text-anchor="start" x="725" y="-355.4" style="font-family:Times New Roman;font-size:11.00;">value :float</text>
</g>
<!-- Dimension&#45;&gt;Width -->
<g id="edge54" class="edge"><title>Dimension&#45;&gt;Width</title>
<path style="fill:none;stroke:black;" d="M755,-630C755,-569 755,-448 755,-396"/>
<polygon style="fill:none;stroke:black;" points="751.5,-630 755,-640 758.5,-630 751.5,-630"/>
</g>
<!-- SeriePrice -->
<g id="node20" class="node"><title>SeriePrice</title>
<polyline style="fill:none;stroke:black;" points="730,-134 781,-134 "/>
<path style="fill:none;stroke:black;" d="M781,-134C787,-134 793,-140 793,-146"/>
<polyline style="fill:none;stroke:black;" points="793,-146 793,-170 "/>
<path style="fill:none;stroke:black;" d="M793,-170C793,-176 787,-182 781,-182"/>
<polyline style="fill:none;stroke:black;" points="781,-182 730,-182 "/>
<path style="fill:none;stroke:black;" d="M730,-182C724,-182 718,-176 718,-170"/>
<polyline style="fill:none;stroke:black;" points="718,-170 718,-146 "/>
<path style="fill:none;stroke:black;" d="M718,-146C718,-140 724,-134 730,-134"/>
<text text-anchor="middle" x="755" y="-165.4" style="font-family:Times New Roman;font-size:11.00;">SeriePrice</text>
<polyline style="fill:none;stroke:black;" points="718,-158 793,-158 "/>
<text text-anchor="start" x="725.5" y="-141.4" style="font-family:Times New Roman;font-size:11.00;">price :float</text>
</g>
<!-- Height&#45;&gt;SeriePrice -->
<g id="edge2" class="edge"><title>Height&#45;&gt;SeriePrice</title>
<path style="fill:none;stroke:black;" d="M837,-338C828,-314 815,-281 802,-252 793,-231 781,-208 772,-189"/>
<polygon style="fill:black;stroke:black;" points="837.126,-338.422 835.69,-349.293 838.563,-343.211 840,-348 840,-348 840,-348 838.563,-343.211 844.31,-346.707 837.126,-338.422 837.126,-338.422"/>
<ellipse style="fill:black;stroke:black;" cx="769.985" cy="-185.473" rx="4.00002" ry="4.00002"/>
</g>
<!-- Opening -->
<g id="node7" class="node"><title>Opening</title>
<polyline style="fill:none;stroke:black;" points="642,-836 792,-836 "/>
<path style="fill:none;stroke:black;" d="M792,-836C798,-836 804,-842 804,-848"/>
<polyline style="fill:none;stroke:black;" points="804,-848 804,-936 "/>
<path style="fill:none;stroke:black;" d="M804,-936C804,-942 798,-948 792,-948"/>
<polyline style="fill:none;stroke:black;" points="792,-948 642,-948 "/>
<path style="fill:none;stroke:black;" d="M642,-948C636,-948 630,-942 630,-936"/>
<polyline style="fill:none;stroke:black;" points="630,-936 630,-848 "/>
<path style="fill:none;stroke:black;" d="M630,-848C630,-842 636,-836 642,-836"/>
<text text-anchor="middle" x="717" y="-931.4" style="font-family:Times New Roman;font-size:11.00;">Opening</text>
<polyline style="fill:none;stroke:black;" points="630,-924 804,-924 "/>
<text text-anchor="start" x="638" y="-907.4" style="font-family:Times New Roman;font-size:11.00;">name :string</text>
<text text-anchor="start" x="638" y="-891.4" style="font-family:Times New Roman;font-size:11.00;">abbreviation :string</text>
<text text-anchor="start" x="638" y="-875.4" style="font-family:Times New Roman;font-size:11.00;">openable :boolean</text>
<text text-anchor="start" x="638" y="-859.4" style="font-family:Times New Roman;font-size:11.00;">preview_image_name :string</text>
<text text-anchor="start" x="638" y="-843.4" style="font-family:Times New Roman;font-size:11.00;">glasses_quantity :integer</text>
</g>
<!-- QuotationLinesOpening -->
<g id="node14" class="node"><title>QuotationLinesOpening</title>
<polyline style="fill:none;stroke:black;" points="661,-8 786,-8 "/>
<path style="fill:none;stroke:black;" d="M786,-8C792,-8 798,-14 798,-20"/>
<polyline style="fill:none;stroke:black;" points="798,-20 798,-44 "/>
<path style="fill:none;stroke:black;" d="M798,-44C798,-50 792,-56 786,-56"/>
<polyline style="fill:none;stroke:black;" points="786,-56 661,-56 "/>
<path style="fill:none;stroke:black;" d="M661,-56C655,-56 649,-50 649,-44"/>
<polyline style="fill:none;stroke:black;" points="649,-44 649,-20 "/>
<path style="fill:none;stroke:black;" d="M649,-20C649,-14 655,-8 661,-8"/>
<text text-anchor="middle" x="723" y="-39.4" style="font-family:Times New Roman;font-size:11.00;">QuotationLinesOpening</text>
<polyline style="fill:none;stroke:black;" points="649,-32 798,-32 "/>
<text text-anchor="start" x="656.5" y="-15.4" style="font-family:Times New Roman;font-size:11.00;">sort_order :integer</text>
</g>
<!-- Opening&#45;&gt;QuotationLinesOpening -->
<g id="edge8" class="edge"><title>Opening&#45;&gt;QuotationLinesOpening</title>
<path style="fill:none;stroke:black;" d="M687,-826C670,-782 651,-720 651,-664 651,-664 651,-664 651,-158 651,-121 674,-86 694,-62"/>
<polygon style="fill:black;stroke:black;" points="687.286,-826.715 686.822,-837.671 689.143,-831.358 691,-836 691,-836 691,-836 689.143,-831.358 695.178,-834.329 687.286,-826.715 687.286,-826.715"/>
<ellipse style="fill:black;stroke:black;" cx="696.439" cy="-59.0729" rx="4.00002" ry="4.00002"/>
</g>
<!-- Serie -->
<g id="node19" class="node"><title>Serie</title>
<polyline style="fill:none;stroke:black;" points="823,-624 915,-624 "/>
<path style="fill:none;stroke:black;" d="M915,-624C921,-624 927,-630 927,-636"/>
<polyline style="fill:none;stroke:black;" points="927,-636 927,-692 "/>
<path style="fill:none;stroke:black;" d="M927,-692C927,-698 921,-704 915,-704"/>
<polyline style="fill:none;stroke:black;" points="915,-704 823,-704 "/>
<path style="fill:none;stroke:black;" d="M823,-704C817,-704 811,-698 811,-692"/>
<polyline style="fill:none;stroke:black;" points="811,-692 811,-636 "/>
<path style="fill:none;stroke:black;" d="M811,-636C811,-630 817,-624 823,-624"/>
<text text-anchor="middle" x="869" y="-687.4" style="font-family:Times New Roman;font-size:11.00;">Serie</text>
<polyline style="fill:none;stroke:black;" points="811,-680 927,-680 "/>
<text text-anchor="start" x="819" y="-663.4" style="font-family:Times New Roman;font-size:11.00;">name :string</text>
<text text-anchor="start" x="819" y="-647.4" style="font-family:Times New Roman;font-size:11.00;">description :string</text>
<text text-anchor="start" x="819" y="-631.4" style="font-family:Times New Roman;font-size:11.00;">comments :text</text>
</g>
<!-- Opening&#45;&gt;Serie -->
<g id="edge10" class="edge"><title>Opening&#45;&gt;Serie</title>
<path style="fill:none;stroke:black;" d="M770,-828C782,-814 793,-798 802,-784 817,-761 832,-735 844,-713"/>
<polygon style="fill:black;stroke:black;" points="770,-828 760.4,-833.3 767,-832 764,-836 764,-836 764,-836 767,-832 767.6,-838.7 770,-828 770,-828"/>
<polygon style="fill:black;stroke:black;" points="844.144,-712.742 852.934,-706.185 846.572,-708.371 849,-704 849,-704 849,-704 846.572,-708.371 845.066,-701.815 844.144,-712.742 844.144,-712.742"/>
<text text-anchor="middle" x="807" y="-805.4" style="font-family:Times New Roman;font-size:11.00;">series</text>
</g>
<!-- Opening&#45;&gt;SeriePrice -->
<g id="edge6" class="edge"><title>Opening&#45;&gt;SeriePrice</title>
<path style="fill:none;stroke:black;" d="M706,-826C688,-708 660,-456 708,-252 713,-229 725,-207 735,-189"/>
<polygon style="fill:black;stroke:black;" points="706.005,-826.05 702.522,-836.448 706.502,-831.025 707,-836 707,-836 707,-836 706.502,-831.025 711.478,-835.552 706.005,-826.05 706.005,-826.05"/>
<ellipse style="fill:black;stroke:black;" cx="737.015" cy="-185.473" rx="4.00002" ry="4.00002"/>
</g>
<!-- Option -->
<g id="node8" class="node"><title>Option</title>
<polyline style="fill:none;stroke:black;" points="955,-324 1081,-324 "/>
<path style="fill:none;stroke:black;" d="M1081,-324C1087,-324 1093,-330 1093,-336"/>
<polyline style="fill:none;stroke:black;" points="1093,-336 1093,-408 "/>
<path style="fill:none;stroke:black;" d="M1093,-408C1093,-414 1087,-420 1081,-420"/>
<polyline style="fill:none;stroke:black;" points="1081,-420 955,-420 "/>
<path style="fill:none;stroke:black;" d="M955,-420C949,-420 943,-414 943,-408"/>
<polyline style="fill:none;stroke:black;" points="943,-408 943,-336 "/>
<path style="fill:none;stroke:black;" d="M943,-336C943,-330 949,-324 955,-324"/>
<text text-anchor="middle" x="1018" y="-403.4" style="font-family:Times New Roman;font-size:11.00;">Option</text>
<polyline style="fill:none;stroke:black;" points="943,-396 1093,-396 "/>
<text text-anchor="start" x="951" y="-379.4" style="font-family:Times New Roman;font-size:11.00;">description :string</text>
<text text-anchor="start" x="951" y="-363.4" style="font-family:Times New Roman;font-size:11.00;">comments :text</text>
<text text-anchor="start" x="951" y="-347.4" style="font-family:Times New Roman;font-size:11.00;">price :float</text>
<text text-anchor="start" x="951" y="-331.4" style="font-family:Times New Roman;font-size:11.00;">minimum_quantity :float</text>
</g>
<!-- QuotationLine -->
<g id="node13" class="node"><title>QuotationLine</title>
<polyline style="fill:none;stroke:black;" points="907,-102 987,-102 "/>
<path style="fill:none;stroke:black;" d="M987,-102C993,-102 999,-108 999,-114"/>
<polyline style="fill:none;stroke:black;" points="999,-114 999,-202 "/>
<path style="fill:none;stroke:black;" d="M999,-202C999,-208 993,-214 987,-214"/>
<polyline style="fill:none;stroke:black;" points="987,-214 907,-214 "/>
<path style="fill:none;stroke:black;" d="M907,-214C901,-214 895,-208 895,-202"/>
<polyline style="fill:none;stroke:black;" points="895,-202 895,-114 "/>
<path style="fill:none;stroke:black;" d="M895,-114C895,-108 901,-102 907,-102"/>
<text text-anchor="middle" x="947" y="-197.4" style="font-family:Times New Roman;font-size:11.00;">QuotationLine</text>
<polyline style="fill:none;stroke:black;" points="895,-190 999,-190 "/>
<text text-anchor="start" x="903" y="-173.4" style="font-family:Times New Roman;font-size:11.00;">width :float</text>
<text text-anchor="start" x="903" y="-157.4" style="font-family:Times New Roman;font-size:11.00;">height :float</text>
<text text-anchor="start" x="903" y="-141.4" style="font-family:Times New Roman;font-size:11.00;">quantity :integer</text>
<text text-anchor="start" x="903" y="-125.4" style="font-family:Times New Roman;font-size:11.00;">price :float</text>
<text text-anchor="start" x="903" y="-109.4" style="font-family:Times New Roman;font-size:11.00;">label :string</text>
</g>
<!-- Option&#45;&gt;QuotationLine -->
<g id="edge12" class="edge"><title>Option&#45;&gt;QuotationLine</title>
<path style="fill:none;stroke:black;" d="M999,-314C989,-287 978,-253 969,-224"/>
<polygon style="fill:black;stroke:black;" points="999.126,-314.422 997.69,-325.293 1000.56,-319.211 1002,-324 1002,-324 1002,-324 1000.56,-319.211 1006.31,-322.707 999.126,-314.422 999.126,-314.422"/>
<polygon style="fill:black;stroke:black;" points="968.874,-223.578 970.31,-212.707 967.437,-218.789 966,-214 966,-214 966,-214 967.437,-218.789 961.69,-215.293 968.874,-223.578 968.874,-223.578"/>
</g>
<!-- Option&#45;&gt;Serie -->
<g id="edge14" class="edge"><title>Option&#45;&gt;Serie</title>
<path style="fill:none;stroke:black;" d="M988,-429C961,-483 921,-564 895,-615"/>
<polygon style="fill:black;stroke:black;" points="988.144,-428.742 996.934,-422.185 990.572,-424.371 993,-420 993,-420 993,-420 990.572,-424.371 989.066,-417.815 988.144,-428.742 988.144,-428.742"/>
<polygon style="fill:black;stroke:black;" points="894.856,-615.258 886.066,-621.815 892.428,-619.629 890,-624 890,-624 890,-624 892.428,-619.629 893.934,-626.185 894.856,-615.258 894.856,-615.258"/>
<text text-anchor="middle" x="960" y="-513.4" style="font-family:Times New Roman;font-size:11.00;">series</text>
</g>
<!-- OptionsMinimumUnit -->
<g id="node9" class="node"><title>OptionsMinimumUnit</title>
<polyline style="fill:none;stroke:black;" points="1392,-860 1505,-860 "/>
<path style="fill:none;stroke:black;" d="M1505,-860C1511,-860 1517,-866 1517,-872"/>
<polyline style="fill:none;stroke:black;" points="1517,-872 1517,-912 "/>
<path style="fill:none;stroke:black;" d="M1517,-912C1517,-918 1511,-924 1505,-924"/>
<polyline style="fill:none;stroke:black;" points="1505,-924 1392,-924 "/>
<path style="fill:none;stroke:black;" d="M1392,-924C1386,-924 1380,-918 1380,-912"/>
<polyline style="fill:none;stroke:black;" points="1380,-912 1380,-872 "/>
<path style="fill:none;stroke:black;" d="M1380,-872C1380,-866 1386,-860 1392,-860"/>
<text text-anchor="middle" x="1448" y="-907.4" style="font-family:Times New Roman;font-size:11.00;">OptionsMinimumUnit</text>
<polyline style="fill:none;stroke:black;" points="1380,-900 1517,-900 "/>
<text text-anchor="start" x="1387.5" y="-883.4" style="font-family:Times New Roman;font-size:11.00;">description :string</text>
<text text-anchor="start" x="1387.5" y="-867.4" style="font-family:Times New Roman;font-size:11.00;">comments :text</text>
</g>
<!-- Permission -->
<g id="node10" class="node"><title>Permission</title>
<polyline style="fill:none;stroke:black;" points="1297,-340 1405,-340 "/>
<path style="fill:none;stroke:black;" d="M1405,-340C1411,-340 1417,-346 1417,-352"/>
<polyline style="fill:none;stroke:black;" points="1417,-352 1417,-392 "/>
<path style="fill:none;stroke:black;" d="M1417,-392C1417,-398 1411,-404 1405,-404"/>
<polyline style="fill:none;stroke:black;" points="1405,-404 1297,-404 "/>
<path style="fill:none;stroke:black;" d="M1297,-404C1291,-404 1285,-398 1285,-392"/>
<polyline style="fill:none;stroke:black;" points="1285,-392 1285,-352 "/>
<path style="fill:none;stroke:black;" d="M1285,-352C1285,-346 1291,-340 1297,-340"/>
<text text-anchor="middle" x="1351" y="-387.4" style="font-family:Times New Roman;font-size:11.00;">Permission</text>
<polyline style="fill:none;stroke:black;" points="1285,-380 1417,-380 "/>
<text text-anchor="start" x="1293" y="-363.4" style="font-family:Times New Roman;font-size:11.00;">created_at :datetime</text>
<text text-anchor="start" x="1293" y="-347.4" style="font-family:Times New Roman;font-size:11.00;">updated_at :datetime</text>
</g>
<!-- PricingMethod -->
<g id="node11" class="node"><title>PricingMethod</title>
<polyline style="fill:none;stroke:black;" points="974,-632 1066,-632 "/>
<path style="fill:none;stroke:black;" d="M1066,-632C1072,-632 1078,-638 1078,-644"/>
<polyline style="fill:none;stroke:black;" points="1078,-644 1078,-684 "/>
<path style="fill:none;stroke:black;" d="M1078,-684C1078,-690 1072,-696 1066,-696"/>
<polyline style="fill:none;stroke:black;" points="1066,-696 974,-696 "/>
<path style="fill:none;stroke:black;" d="M974,-696C968,-696 962,-690 962,-684"/>
<polyline style="fill:none;stroke:black;" points="962,-684 962,-644 "/>
<path style="fill:none;stroke:black;" d="M962,-644C962,-638 968,-632 974,-632"/>
<text text-anchor="middle" x="1020" y="-679.4" style="font-family:Times New Roman;font-size:11.00;">PricingMethod</text>
<polyline style="fill:none;stroke:black;" points="962,-672 1078,-672 "/>
<text text-anchor="start" x="970" y="-655.4" style="font-family:Times New Roman;font-size:11.00;">description :string</text>
<text text-anchor="start" x="970" y="-639.4" style="font-family:Times New Roman;font-size:11.00;">comments :text</text>
</g>
<!-- PricingMethod&#45;&gt;Option -->
<g id="edge16" class="edge"><title>PricingMethod&#45;&gt;Option</title>
<path style="fill:none;stroke:black;" d="M1020,-622C1019,-571 1019,-485 1018,-428"/>
<polygon style="fill:black;stroke:black;" points="1020,-622 1015.5,-632 1020,-627 1020,-632 1020,-632 1020,-632 1020,-627 1024.5,-632 1020,-622 1020,-622"/>
<ellipse style="fill:black;stroke:black;" cx="1018" cy="-424" rx="4" ry="4"/>
</g>
<!-- Quotation -->
<g id="node12" class="node"><title>Quotation</title>
<polyline style="fill:none;stroke:black;" points="1123,-252 1255,-252 "/>
<path style="fill:none;stroke:black;" d="M1255,-252C1261,-252 1267,-258 1267,-264"/>
<polyline style="fill:none;stroke:black;" points="1267,-264 1267,-480 "/>
<path style="fill:none;stroke:black;" d="M1267,-480C1267,-486 1261,-492 1255,-492"/>
<polyline style="fill:none;stroke:black;" points="1255,-492 1123,-492 "/>
<path style="fill:none;stroke:black;" d="M1123,-492C1117,-492 1111,-486 1111,-480"/>
<polyline style="fill:none;stroke:black;" points="1111,-480 1111,-264 "/>
<path style="fill:none;stroke:black;" d="M1111,-264C1111,-258 1117,-252 1123,-252"/>
<text text-anchor="middle" x="1189" y="-475.4" style="font-family:Times New Roman;font-size:11.00;">Quotation</text>
<polyline style="fill:none;stroke:black;" points="1111,-468 1267,-468 "/>
<text text-anchor="start" x="1119" y="-451.4" style="font-family:Times New Roman;font-size:11.00;">description :string</text>
<text text-anchor="start" x="1119" y="-435.4" style="font-family:Times New Roman;font-size:11.00;">comments :text</text>
<text text-anchor="start" x="1119" y="-419.4" style="font-family:Times New Roman;font-size:11.00;">project_name :string</text>
<text text-anchor="start" x="1119" y="-403.4" style="font-family:Times New Roman;font-size:11.00;">customer_name :string</text>
<text text-anchor="start" x="1119" y="-387.4" style="font-family:Times New Roman;font-size:11.00;">customer_address :string</text>
<text text-anchor="start" x="1119" y="-371.4" style="font-family:Times New Roman;font-size:11.00;">customer_phone :string</text>
<text text-anchor="start" x="1119" y="-355.4" style="font-family:Times New Roman;font-size:11.00;">customer_fax :string</text>
<text text-anchor="start" x="1119" y="-339.4" style="font-family:Times New Roman;font-size:11.00;">customer_email :string</text>
<text text-anchor="start" x="1119" y="-323.4" style="font-family:Times New Roman;font-size:11.00;">transport :float</text>
<text text-anchor="start" x="1119" y="-307.4" style="font-family:Times New Roman;font-size:11.00;">discount :float</text>
<text text-anchor="start" x="1119" y="-291.4" style="font-family:Times New Roman;font-size:11.00;">taxes :float</text>
<text text-anchor="start" x="1119" y="-275.4" style="font-family:Times New Roman;font-size:11.00;">notes :text</text>
<text text-anchor="start" x="1119" y="-259.4" style="font-family:Times New Roman;font-size:11.00;">ready_to_sign :boolean</text>
</g>
<!-- Quotation&#45;&gt;QuotationLine -->
<g id="edge18" class="edge"><title>Quotation&#45;&gt;QuotationLine</title>
<path style="fill:none;stroke:black;" d="M1103,-253C1103,-253 1102,-252 1102,-252 1068,-224 1048,-237 1010,-214 1008,-213 1007,-212 1005,-211"/>
<polygon style="fill:black;stroke:black;" points="1103,-253 1108.3,-262.6 1107,-256 1111,-259 1111,-259 1111,-259 1107,-256 1113.7,-255.4 1103,-253 1103,-253"/>
<ellipse style="fill:black;stroke:black;" cx="1002.07" cy="-208.561" rx="4.00002" ry="4.00002"/>
</g>
<!-- QuotationLine&#45;&gt;QuotationLinesOpening -->
<g id="edge24" class="edge"><title>QuotationLine&#45;&gt;QuotationLinesOpening</title>
<path style="fill:none;stroke:black;" d="M886,-124C851,-104 807,-79 773,-60"/>
<polygon style="fill:black;stroke:black;" points="886.258,-124.144 892.815,-132.934 890.629,-126.572 895,-129 895,-129 895,-129 890.629,-126.572 897.185,-125.066 886.258,-124.144 886.258,-124.144"/>
<ellipse style="fill:black;stroke:black;" cx="769.473" cy="-57.9846" rx="4.00002" ry="4.00002"/>
</g>
<!-- SectionHeight -->
<g id="node17" class="node"><title>SectionHeight</title>
<polyline style="fill:none;stroke:black;" points="1035,-0 1130,-0 "/>
<path style="fill:none;stroke:black;" d="M1130,-0C1136,-0 1142,-6 1142,-12"/>
<polyline style="fill:none;stroke:black;" points="1142,-12 1142,-52 "/>
<path style="fill:none;stroke:black;" d="M1142,-52C1142,-58 1136,-64 1130,-64"/>
<polyline style="fill:none;stroke:black;" points="1130,-64 1035,-64 "/>
<path style="fill:none;stroke:black;" d="M1035,-64C1029,-64 1023,-58 1023,-52"/>
<polyline style="fill:none;stroke:black;" points="1023,-52 1023,-12 "/>
<path style="fill:none;stroke:black;" d="M1023,-12C1023,-6 1029,-0 1035,-0"/>
<text text-anchor="middle" x="1082" y="-47.4" style="font-family:Times New Roman;font-size:11.00;">SectionHeight</text>
<polyline style="fill:none;stroke:black;" points="1023,-40 1142,-40 "/>
<text text-anchor="start" x="1030.5" y="-23.4" style="font-family:Times New Roman;font-size:11.00;">sort_order :integer</text>
<text text-anchor="start" x="1030.5" y="-7.4" style="font-family:Times New Roman;font-size:11.00;">value :float</text>
</g>
<!-- QuotationLine&#45;&gt;SectionHeight -->
<g id="edge20" class="edge"><title>QuotationLine&#45;&gt;SectionHeight</title>
<path style="fill:none;stroke:black;" d="M1007,-102C1019,-91 1031,-80 1041,-70"/>
<polygon style="fill:black;stroke:black;" points="1006.53,-102.415 996.037,-105.613 1002.76,-105.707 999,-109 999,-109 999,-109 1002.76,-105.707 1001.96,-112.387 1006.53,-102.415 1006.53,-102.415"/>
<ellipse style="fill:black;stroke:black;" cx="1044.17" cy="-66.8284" rx="4.00002" ry="4.00002"/>
</g>
<!-- SectionWidth -->
<g id="node18" class="node"><title>SectionWidth</title>
<polyline style="fill:none;stroke:black;" points="899,-0 994,-0 "/>
<path style="fill:none;stroke:black;" d="M994,-0C1000,-0 1006,-6 1006,-12"/>
<polyline style="fill:none;stroke:black;" points="1006,-12 1006,-52 "/>
<path style="fill:none;stroke:black;" d="M1006,-52C1006,-58 1000,-64 994,-64"/>
<polyline style="fill:none;stroke:black;" points="994,-64 899,-64 "/>
<path style="fill:none;stroke:black;" d="M899,-64C893,-64 887,-58 887,-52"/>
<polyline style="fill:none;stroke:black;" points="887,-52 887,-12 "/>
<path style="fill:none;stroke:black;" d="M887,-12C887,-6 893,-0 899,-0"/>
<text text-anchor="middle" x="946" y="-47.4" style="font-family:Times New Roman;font-size:11.00;">SectionWidth</text>
<polyline style="fill:none;stroke:black;" points="887,-40 1006,-40 "/>
<text text-anchor="start" x="894.5" y="-23.4" style="font-family:Times New Roman;font-size:11.00;">sort_order :integer</text>
<text text-anchor="start" x="894.5" y="-7.4" style="font-family:Times New Roman;font-size:11.00;">value :float</text>
</g>
<!-- QuotationLine&#45;&gt;SectionWidth -->
<g id="edge22" class="edge"><title>QuotationLine&#45;&gt;SectionWidth</title>
<path style="fill:none;stroke:black;" d="M947,-92C947,-85 947,-78 946,-72"/>
<polygon style="fill:black;stroke:black;" points="947,-92 942.5,-102 947,-97 947,-102 947,-102 947,-102 947,-97 951.5,-102 947,-92 947,-92"/>
<ellipse style="fill:black;stroke:black;" cx="946" cy="-68" rx="4" ry="4"/>
</g>
<!-- Role -->
<g id="node15" class="node"><title>Role</title>
<polyline style="fill:none;stroke:black;" points="1270,-868 1350,-868 "/>
<path style="fill:none;stroke:black;" d="M1350,-868C1356,-868 1362,-874 1362,-880"/>
<polyline style="fill:none;stroke:black;" points="1362,-880 1362,-904 "/>
<path style="fill:none;stroke:black;" d="M1362,-904C1362,-910 1356,-916 1350,-916"/>
<polyline style="fill:none;stroke:black;" points="1350,-916 1270,-916 "/>
<path style="fill:none;stroke:black;" d="M1270,-916C1264,-916 1258,-910 1258,-904"/>
<polyline style="fill:none;stroke:black;" points="1258,-904 1258,-880 "/>
<path style="fill:none;stroke:black;" d="M1258,-880C1258,-874 1264,-868 1270,-868"/>
<text text-anchor="middle" x="1310" y="-899.4" style="font-family:Times New Roman;font-size:11.00;">Role</text>
<polyline style="fill:none;stroke:black;" points="1258,-892 1362,-892 "/>
<text text-anchor="start" x="1266" y="-875.4" style="font-family:Times New Roman;font-size:11.00;">rolename :string</text>
</g>
<!-- Role&#45;&gt;Permission -->
<g id="edge28" class="edge"><title>Role&#45;&gt;Permission</title>
<path style="fill:none;stroke:black;" d="M1319,-858C1324,-837 1330,-809 1333,-784 1351,-648 1352,-487 1352,-412"/>
<polygon style="fill:black;stroke:black;" points="1318.87,-858.422 1311.69,-866.707 1317.44,-863.211 1316,-868 1316,-868 1316,-868 1317.44,-863.211 1320.31,-869.293 1318.87,-858.422 1318.87,-858.422"/>
<ellipse style="fill:black;stroke:black;" cx="1352" cy="-408" rx="4" ry="4"/>
</g>
<!-- User -->
<g id="node23" class="node"><title>User</title>
<polyline style="fill:none;stroke:black;" points="1108,-544 1312,-544 "/>
<path style="fill:none;stroke:black;" d="M1312,-544C1318,-544 1324,-550 1324,-556"/>
<polyline style="fill:none;stroke:black;" points="1324,-556 1324,-772 "/>
<path style="fill:none;stroke:black;" d="M1324,-772C1324,-778 1318,-784 1312,-784"/>
<polyline style="fill:none;stroke:black;" points="1312,-784 1108,-784 "/>
<path style="fill:none;stroke:black;" d="M1108,-784C1102,-784 1096,-778 1096,-772"/>
<polyline style="fill:none;stroke:black;" points="1096,-772 1096,-556 "/>
<path style="fill:none;stroke:black;" d="M1096,-556C1096,-550 1102,-544 1108,-544"/>
<text text-anchor="middle" x="1210" y="-767.4" style="font-family:Times New Roman;font-size:11.00;">User</text>
<polyline style="fill:none;stroke:black;" points="1096,-760 1324,-760 "/>
<text text-anchor="start" x="1104" y="-743.4" style="font-family:Times New Roman;font-size:11.00;">login :string</text>
<text text-anchor="start" x="1104" y="-727.4" style="font-family:Times New Roman;font-size:11.00;">email :string</text>
<text text-anchor="start" x="1104" y="-711.4" style="font-family:Times New Roman;font-size:11.00;">crypted_password :string</text>
<text text-anchor="start" x="1104" y="-695.4" style="font-family:Times New Roman;font-size:11.00;">salt :string</text>
<text text-anchor="start" x="1104" y="-679.4" style="font-family:Times New Roman;font-size:11.00;">created_at :datetime</text>
<text text-anchor="start" x="1104" y="-663.4" style="font-family:Times New Roman;font-size:11.00;">updated_at :datetime</text>
<text text-anchor="start" x="1104" y="-647.4" style="font-family:Times New Roman;font-size:11.00;">remember_token :string</text>
<text text-anchor="start" x="1104" y="-631.4" style="font-family:Times New Roman;font-size:11.00;">remember_token_expires_at :datetime</text>
<text text-anchor="start" x="1104" y="-615.4" style="font-family:Times New Roman;font-size:11.00;">activation_code :string</text>
<text text-anchor="start" x="1104" y="-599.4" style="font-family:Times New Roman;font-size:11.00;">activated_at :datetime</text>
<text text-anchor="start" x="1104" y="-583.4" style="font-family:Times New Roman;font-size:11.00;">password_reset_code :string</text>
<text text-anchor="start" x="1104" y="-567.4" style="font-family:Times New Roman;font-size:11.00;">enabled :boolean</text>
<text text-anchor="start" x="1104" y="-551.4" style="font-family:Times New Roman;font-size:11.00;">discount :float</text>
</g>
<!-- Role&#45;&gt;User -->
<g id="edge26" class="edge"><title>Role&#45;&gt;User</title>
<path style="fill:none;stroke:black;" d="M1295,-859C1287,-840 1277,-818 1267,-793"/>
<polygon style="fill:black;stroke:black;" points="1294.94,-858.862 1294.89,-869.828 1296.97,-863.431 1299,-868 1299,-868 1299,-868 1296.97,-863.431 1303.11,-866.172 1294.94,-858.862 1294.94,-858.862"/>
<polygon style="fill:black;stroke:black;" points="1267.06,-793.138 1267.11,-782.172 1265.03,-788.569 1263,-784 1263,-784 1263,-784 1265.03,-788.569 1258.89,-785.828 1267.06,-793.138 1267.06,-793.138"/>
</g>
<!-- SectionDimension -->
<g id="node16" class="node"><title>SectionDimension</title>
<polyline style="fill:none;stroke:black;" points="1031,-126 1126,-126 "/>
<path style="fill:none;stroke:black;" d="M1126,-126C1132,-126 1138,-132 1138,-138"/>
<polyline style="fill:none;stroke:black;" points="1138,-138 1138,-178 "/>
<path style="fill:none;stroke:black;" d="M1138,-178C1138,-184 1132,-190 1126,-190"/>
<polyline style="fill:none;stroke:black;" points="1126,-190 1031,-190 "/>
<path style="fill:none;stroke:black;" d="M1031,-190C1025,-190 1019,-184 1019,-178"/>
<polyline style="fill:none;stroke:black;" points="1019,-178 1019,-138 "/>
<path style="fill:none;stroke:black;" d="M1019,-138C1019,-132 1025,-126 1031,-126"/>
<text text-anchor="middle" x="1078" y="-173.4" style="font-family:Times New Roman;font-size:11.00;">SectionDimension</text>
<polyline style="fill:none;stroke:black;" points="1019,-166 1138,-166 "/>
<text text-anchor="start" x="1026.5" y="-149.4" style="font-family:Times New Roman;font-size:11.00;">sort_order :integer</text>
<text text-anchor="start" x="1026.5" y="-133.4" style="font-family:Times New Roman;font-size:11.00;">value :float</text>
</g>
<!-- SectionDimension&#45;&gt;SectionHeight -->
<g id="edge30" class="edge"><title>SectionDimension&#45;&gt;SectionHeight</title>
<path style="fill:none;stroke:black;" d="M1079,-116C1080,-99 1080,-80 1081,-64"/>
<polygon style="fill:none;stroke:black;" points="1075.5,-116 1079,-126 1082.5,-116 1075.5,-116"/>
</g>
<!-- SectionDimension&#45;&gt;SectionWidth -->
<g id="edge32" class="edge"><title>SectionDimension&#45;&gt;SectionWidth</title>
<path style="fill:none;stroke:black;" d="M1036,-119C1018,-101 996,-81 979,-64"/>
<polygon style="fill:none;stroke:black;" points="1034.17,-122.049 1044,-126 1038.78,-116.781 1034.17,-122.049"/>
</g>
<!-- Serie&#45;&gt;Height -->
<g id="edge38" class="edge"><title>Serie&#45;&gt;Height</title>
<path style="fill:none;stroke:black;" d="M865,-614C861,-554 855,-455 852,-404"/>
<polygon style="fill:black;stroke:black;" points="865.005,-614.05 861.522,-624.448 865.502,-619.025 866,-624 866,-624 866,-624 865.502,-619.025 870.478,-623.552 865.005,-614.05 865.005,-614.05"/>
<ellipse style="fill:black;stroke:black;" cx="851.496" cy="-399.969" rx="4.00001" ry="4.00001"/>
</g>
<!-- Serie&#45;&gt;Opening -->
<g id="edge40" class="edge"><title>Serie&#45;&gt;Opening</title>
<path style="fill:none;stroke:black;" d="M849,-713C837,-736 821,-764 802,-784 793,-794 786,-791 775,-802 767,-810 760,-818 754,-828"/>
<polygon style="fill:black;stroke:black;" points="848.939,-713.138 857.112,-705.828 850.969,-708.569 853,-704 853,-704 853,-704 850.969,-708.569 848.888,-702.172 848.939,-713.138 848.939,-713.138"/>
<polygon style="fill:black;stroke:black;" points="754,-828 744.4,-833.3 751,-832 748,-836 748,-836 748,-836 751,-832 751.6,-838.7 754,-828 754,-828"/>
</g>
<!-- Serie&#45;&gt;Option -->
<g id="edge36" class="edge"><title>Serie&#45;&gt;Option</title>
<path style="fill:none;stroke:black;" d="M897,-615C912,-592 932,-564 953,-544 964,-533 972,-537 980,-526 1000,-498 1009,-461 1014,-430"/>
<polygon style="fill:black;stroke:black;" points="896.856,-615.258 888.066,-621.815 894.428,-619.629 892,-624 892,-624 892,-624 894.428,-619.629 895.934,-626.185 896.856,-615.258 896.856,-615.258"/>
<polygon style="fill:black;stroke:black;" points="1014,-429.95 1019.48,-420.448 1014.5,-424.975 1015,-420 1015,-420 1015,-420 1014.5,-424.975 1010.52,-419.552 1014,-429.95 1014,-429.95"/>
</g>
<!-- Serie&#45;&gt;QuotationLine -->
<g id="edge42" class="edge"><title>Serie&#45;&gt;QuotationLine</title>
<path style="fill:none;stroke:black;" d="M877,-614C882,-579 890,-533 896,-492 910,-398 927,-289 938,-222"/>
<polygon style="fill:black;stroke:black;" points="876.995,-614.05 871.522,-623.552 876.498,-619.025 876,-624 876,-624 876,-624 876.498,-619.025 880.478,-624.448 876.995,-614.05 876.995,-614.05"/>
<ellipse style="fill:black;stroke:black;" cx="938.504" cy="-217.969" rx="4.00001" ry="4.00001"/>
</g>
<!-- Serie&#45;&gt;Width -->
<g id="edge34" class="edge"><title>Serie&#45;&gt;Width</title>
<path style="fill:none;stroke:black;" d="M849,-615C826,-554 787,-454 767,-403"/>
<polygon style="fill:black;stroke:black;" points="848.939,-614.862 848.888,-625.828 850.969,-619.431 853,-624 853,-624 853,-624 850.969,-619.431 857.112,-622.172 848.939,-614.862 848.939,-614.862"/>
<ellipse style="fill:black;stroke:black;" cx="765.576" cy="-399.677" rx="4.00002" ry="4.00002"/>
</g>
<!-- Shape -->
<g id="node21" class="node"><title>Shape</title>
<polyline style="fill:none;stroke:black;" points="1546,-844 1668,-844 "/>
<path style="fill:none;stroke:black;" d="M1668,-844C1674,-844 1680,-850 1680,-856"/>
<polyline style="fill:none;stroke:black;" points="1680,-856 1680,-928 "/>
<path style="fill:none;stroke:black;" d="M1680,-928C1680,-934 1674,-940 1668,-940"/>
<polyline style="fill:none;stroke:black;" points="1668,-940 1546,-940 "/>
<path style="fill:none;stroke:black;" d="M1546,-940C1540,-940 1534,-934 1534,-928"/>
<polyline style="fill:none;stroke:black;" points="1534,-928 1534,-856 "/>
<path style="fill:none;stroke:black;" d="M1534,-856C1534,-850 1540,-844 1546,-844"/>
<text text-anchor="middle" x="1607" y="-923.4" style="font-family:Times New Roman;font-size:11.00;">Shape</text>
<polyline style="fill:none;stroke:black;" points="1534,-916 1680,-916 "/>
<text text-anchor="start" x="1542" y="-899.4" style="font-family:Times New Roman;font-size:11.00;">name :string</text>
<text text-anchor="start" x="1542" y="-883.4" style="font-family:Times New Roman;font-size:11.00;">sections_width :integer</text>
<text text-anchor="start" x="1542" y="-867.4" style="font-family:Times New Roman;font-size:11.00;">sections_height :integer</text>
<text text-anchor="start" x="1542" y="-851.4" style="font-family:Times New Roman;font-size:11.00;">corners :integer</text>
</g>
<!-- Translation -->
<g id="node22" class="node"><title>Translation</title>
<polyline style="fill:none;stroke:black;" points="1710,-844 1824,-844 "/>
<path style="fill:none;stroke:black;" d="M1824,-844C1830,-844 1836,-850 1836,-856"/>
<polyline style="fill:none;stroke:black;" points="1836,-856 1836,-928 "/>
<path style="fill:none;stroke:black;" d="M1836,-928C1836,-934 1830,-940 1824,-940"/>
<polyline style="fill:none;stroke:black;" points="1824,-940 1710,-940 "/>
<path style="fill:none;stroke:black;" d="M1710,-940C1704,-940 1698,-934 1698,-928"/>
<polyline style="fill:none;stroke:black;" points="1698,-928 1698,-856 "/>
<path style="fill:none;stroke:black;" d="M1698,-856C1698,-850 1704,-844 1710,-844"/>
<text text-anchor="middle" x="1767" y="-923.4" style="font-family:Times New Roman;font-size:11.00;">Translation</text>
<polyline style="fill:none;stroke:black;" points="1698,-916 1836,-916 "/>
<text text-anchor="start" x="1706" y="-899.4" style="font-family:Times New Roman;font-size:11.00;">translation_key :string</text>
<text text-anchor="start" x="1706" y="-883.4" style="font-family:Times New Roman;font-size:11.00;">fr :text</text>
<text text-anchor="start" x="1706" y="-867.4" style="font-family:Times New Roman;font-size:11.00;">comments :text</text>
<text text-anchor="start" x="1706" y="-851.4" style="font-family:Times New Roman;font-size:11.00;">en :text</text>
</g>
<!-- User&#45;&gt;Permission -->
<g id="edge46" class="edge"><title>User&#45;&gt;Permission</title>
<path style="fill:none;stroke:black;" d="M1272,-535C1294,-491 1316,-444 1332,-411"/>
<polygon style="fill:black;stroke:black;" points="1272.06,-534.862 1263.89,-542.172 1270.03,-539.431 1268,-544 1268,-544 1268,-544 1270.03,-539.431 1272.11,-545.828 1272.06,-534.862 1272.06,-534.862"/>
<ellipse style="fill:black;stroke:black;" cx="1333.42" cy="-407.677" rx="4.00002" ry="4.00002"/>
</g>
<!-- User&#45;&gt;Quotation -->
<g id="edge44" class="edge"><title>User&#45;&gt;Quotation</title>
<path style="fill:none;stroke:black;" d="M1200,-534C1200,-523 1199,-511 1199,-500"/>
<polygon style="fill:black;stroke:black;" points="1200,-534.05 1196.52,-544.448 1200.5,-539.025 1201,-544 1201,-544 1201,-544 1200.5,-539.025 1205.48,-543.552 1200,-534.05 1200,-534.05"/>
<ellipse style="fill:black;stroke:black;" cx="1198.5" cy="-495.969" rx="4.00001" ry="4.00001"/>
</g>
<!-- UserMailer -->
<g id="node24" class="node"><title>UserMailer</title>
<polygon style="fill:none;stroke:black;" points="1897,-640 1897,-688 1974,-688 1974,-640 1897,-640"/>
<text text-anchor="middle" x="1935" y="-671.4" style="font-family:Times New Roman;font-size:11.00;">UserMailer</text>
<polyline style="fill:none;stroke:black;" points="1897,-664 1974,-664 "/>
<text text-anchor="middle" x="1935" y="-647.4" style="font-family:Times New Roman;font-size:11.00;"> </text>
</g>
<!-- UserObserver -->
<g id="node25" class="node"><title>UserObserver</title>
<polygon style="fill:none;stroke:black;" points="2089,-640 2089,-688 2183,-688 2183,-640 2089,-640"/>
<text text-anchor="middle" x="2136" y="-671.4" style="font-family:Times New Roman;font-size:11.00;">UserObserver</text>
<polyline style="fill:none;stroke:black;" points="2089,-664 2183,-664 "/>
<text text-anchor="middle" x="2136" y="-647.4" style="font-family:Times New Roman;font-size:11.00;"> </text>
</g>
<!-- Width&#45;&gt;SeriePrice -->
<g id="edge52" class="edge"><title>Width&#45;&gt;SeriePrice</title>
<path style="fill:none;stroke:black;" d="M755,-338C755,-297 755,-230 755,-190"/>
<polygon style="fill:black;stroke:black;" points="755,-338 750.5,-348 755,-343 755,-348 755,-348 755,-348 755,-343 759.5,-348 755,-338 755,-338"/>
<ellipse style="fill:black;stroke:black;" cx="755" cy="-186" rx="4" ry="4"/>
</g>
<!-- ActionMailer::Base -->
<g id="node50" class="node"><title>ActionMailer::Base</title>
<ellipse style="fill:none;stroke:black;" cx="1935" cy="-892" rx="81.1693" ry="18"/>
<text text-anchor="middle" x="1935" y="-887.4" style="font-family:Times New Roman;font-size:11.00;">ActionMailer::Base</text>
</g>
<!-- ActionMailer::Base&#45;&gt;UserMailer -->
<g id="edge48" class="edge"><title>ActionMailer::Base&#45;&gt;UserMailer</title>
<path style="fill:none;stroke:black;" d="M1935,-864C1935,-819 1935,-731 1935,-688"/>
<polygon style="fill:none;stroke:black;" points="1931.5,-864 1935,-874 1938.5,-864 1931.5,-864"/>
</g>
<!-- ActiveRecord::Observer -->
<g id="node52" class="node"><title>ActiveRecord::Observer</title>
<ellipse style="fill:none;stroke:black;" cx="2136" cy="-892" rx="101.965" ry="18"/>
<text text-anchor="middle" x="2136" y="-887.4" style="font-family:Times New Roman;font-size:11.00;">ActiveRecord::Observer</text>
</g>
<!-- ActiveRecord::Observer&#45;&gt;UserObserver -->
<g id="edge50" class="edge"><title>ActiveRecord::Observer&#45;&gt;UserObserver</title>
<path style="fill:none;stroke:black;" d="M2136,-864C2136,-819 2136,-731 2136,-688"/>
<polygon style="fill:none;stroke:black;" points="2132.5,-864 2136,-874 2139.5,-864 2132.5,-864"/>
</g>
</g>
</svg>
